%TF.GenerationSoftware,KiCad,Pcbnew,7.0.0-da2b9df05c~171~ubuntu22.04.1*%
%TF.CreationDate,2023-03-08T14:52:38+00:00*%
%TF.ProjectId,keycap-ruler,6b657963-6170-42d7-9275-6c65722e6b69,rev?*%
%TF.SameCoordinates,Original*%
%TF.FileFunction,Legend,Top*%
%TF.FilePolarity,Positive*%
%FSLAX46Y46*%
G04 Gerber Fmt 4.6, Leading zero omitted, Abs format (unit mm)*
G04 Created by KiCad (PCBNEW 7.0.0-da2b9df05c~171~ubuntu22.04.1) date 2023-03-08 14:52:38*
%MOMM*%
%LPD*%
G01*
G04 APERTURE LIST*
%ADD10C,1.000000*%
%ADD11C,0.500000*%
%ADD12C,0.150000*%
%ADD13C,0.120000*%
%ADD14C,1.750000*%
%ADD15C,3.050000*%
%ADD16C,4.000000*%
%ADD17C,1.650000*%
%ADD18C,1.250000*%
%ADD19C,5.050000*%
%ADD20C,1.900000*%
%ADD21C,3.450000*%
%ADD22C,1.550000*%
G04 APERTURE END LIST*
D10*
X104000000Y-84000000D02*
X155500000Y-84000000D01*
X155500000Y-84000000D02*
X155500000Y-102000000D01*
X155500000Y-102000000D02*
X104000000Y-102000000D01*
X104000000Y-102000000D02*
X104000000Y-84000000D01*
X159250000Y-63000000D02*
X195250000Y-63000000D01*
X195250000Y-63000000D02*
X195250000Y-81000000D01*
X195250000Y-81000000D02*
X159250000Y-81000000D01*
X159250000Y-81000000D02*
X159250000Y-63000000D01*
X66000000Y-63000000D02*
X88500000Y-63000000D01*
X88500000Y-63000000D02*
X88500000Y-81000000D01*
X88500000Y-81000000D02*
X66000000Y-81000000D01*
X66000000Y-81000000D02*
X66000000Y-63000000D01*
X44250000Y-63000000D02*
X62250000Y-63000000D01*
X62250000Y-63000000D02*
X62250000Y-81000000D01*
X62250000Y-81000000D02*
X44250000Y-81000000D01*
X44250000Y-81000000D02*
X44250000Y-63000000D01*
X159250000Y-84000000D02*
X201750000Y-84000000D01*
X201750000Y-84000000D02*
X201750000Y-102000000D01*
X201750000Y-102000000D02*
X159250000Y-102000000D01*
X159250000Y-102000000D02*
X159250000Y-84000000D01*
X92250000Y-63000000D02*
X119250000Y-63000000D01*
X119250000Y-63000000D02*
X119250000Y-81000000D01*
X119250000Y-81000000D02*
X92250000Y-81000000D01*
X92250000Y-81000000D02*
X92250000Y-63000000D01*
X44250000Y-84000000D02*
X100250000Y-84000000D01*
X100250000Y-84000000D02*
X100250000Y-102000000D01*
X100250000Y-102000000D02*
X44250000Y-102000000D01*
X44250000Y-102000000D02*
X44250000Y-84000000D01*
X123000000Y-63000000D02*
X155500000Y-63000000D01*
X155500000Y-63000000D02*
X155500000Y-81000000D01*
X155500000Y-81000000D02*
X123000000Y-81000000D01*
X123000000Y-81000000D02*
X123000000Y-63000000D01*
D11*
X101059523Y-73911904D02*
X98202380Y-73911904D01*
X99630952Y-73911904D02*
X99630952Y-68911904D01*
X99630952Y-68911904D02*
X99154761Y-69626190D01*
X99154761Y-69626190D02*
X98678571Y-70102380D01*
X98678571Y-70102380D02*
X98202380Y-70340476D01*
X103202381Y-73435714D02*
X103440476Y-73673809D01*
X103440476Y-73673809D02*
X103202381Y-73911904D01*
X103202381Y-73911904D02*
X102964285Y-73673809D01*
X102964285Y-73673809D02*
X103202381Y-73435714D01*
X103202381Y-73435714D02*
X103202381Y-73911904D01*
X107964285Y-68911904D02*
X105583333Y-68911904D01*
X105583333Y-68911904D02*
X105345237Y-71292857D01*
X105345237Y-71292857D02*
X105583333Y-71054761D01*
X105583333Y-71054761D02*
X106059523Y-70816666D01*
X106059523Y-70816666D02*
X107249999Y-70816666D01*
X107249999Y-70816666D02*
X107726190Y-71054761D01*
X107726190Y-71054761D02*
X107964285Y-71292857D01*
X107964285Y-71292857D02*
X108202380Y-71769047D01*
X108202380Y-71769047D02*
X108202380Y-72959523D01*
X108202380Y-72959523D02*
X107964285Y-73435714D01*
X107964285Y-73435714D02*
X107726190Y-73673809D01*
X107726190Y-73673809D02*
X107249999Y-73911904D01*
X107249999Y-73911904D02*
X106059523Y-73911904D01*
X106059523Y-73911904D02*
X105583333Y-73673809D01*
X105583333Y-73673809D02*
X105345237Y-73435714D01*
X110345238Y-68911904D02*
X110345238Y-72959523D01*
X110345238Y-72959523D02*
X110583333Y-73435714D01*
X110583333Y-73435714D02*
X110821428Y-73673809D01*
X110821428Y-73673809D02*
X111297619Y-73911904D01*
X111297619Y-73911904D02*
X112250000Y-73911904D01*
X112250000Y-73911904D02*
X112726190Y-73673809D01*
X112726190Y-73673809D02*
X112964285Y-73435714D01*
X112964285Y-73435714D02*
X113202381Y-72959523D01*
X113202381Y-72959523D02*
X113202381Y-68911904D01*
X131809523Y-73911904D02*
X128952380Y-73911904D01*
X130380952Y-73911904D02*
X130380952Y-68911904D01*
X130380952Y-68911904D02*
X129904761Y-69626190D01*
X129904761Y-69626190D02*
X129428571Y-70102380D01*
X129428571Y-70102380D02*
X128952380Y-70340476D01*
X133952381Y-73435714D02*
X134190476Y-73673809D01*
X134190476Y-73673809D02*
X133952381Y-73911904D01*
X133952381Y-73911904D02*
X133714285Y-73673809D01*
X133714285Y-73673809D02*
X133952381Y-73435714D01*
X133952381Y-73435714D02*
X133952381Y-73911904D01*
X135857142Y-68911904D02*
X139190476Y-68911904D01*
X139190476Y-68911904D02*
X137047618Y-73911904D01*
X143476190Y-68911904D02*
X141095238Y-68911904D01*
X141095238Y-68911904D02*
X140857142Y-71292857D01*
X140857142Y-71292857D02*
X141095238Y-71054761D01*
X141095238Y-71054761D02*
X141571428Y-70816666D01*
X141571428Y-70816666D02*
X142761904Y-70816666D01*
X142761904Y-70816666D02*
X143238095Y-71054761D01*
X143238095Y-71054761D02*
X143476190Y-71292857D01*
X143476190Y-71292857D02*
X143714285Y-71769047D01*
X143714285Y-71769047D02*
X143714285Y-72959523D01*
X143714285Y-72959523D02*
X143476190Y-73435714D01*
X143476190Y-73435714D02*
X143238095Y-73673809D01*
X143238095Y-73673809D02*
X142761904Y-73911904D01*
X142761904Y-73911904D02*
X141571428Y-73911904D01*
X141571428Y-73911904D02*
X141095238Y-73673809D01*
X141095238Y-73673809D02*
X140857142Y-73435714D01*
X145857143Y-68911904D02*
X145857143Y-72959523D01*
X145857143Y-72959523D02*
X146095238Y-73435714D01*
X146095238Y-73435714D02*
X146333333Y-73673809D01*
X146333333Y-73673809D02*
X146809524Y-73911904D01*
X146809524Y-73911904D02*
X147761905Y-73911904D01*
X147761905Y-73911904D02*
X148238095Y-73673809D01*
X148238095Y-73673809D02*
X148476190Y-73435714D01*
X148476190Y-73435714D02*
X148714286Y-72959523D01*
X148714286Y-72959523D02*
X148714286Y-68911904D01*
X52059523Y-73911904D02*
X49202380Y-73911904D01*
X50630952Y-73911904D02*
X50630952Y-68911904D01*
X50630952Y-68911904D02*
X50154761Y-69626190D01*
X50154761Y-69626190D02*
X49678571Y-70102380D01*
X49678571Y-70102380D02*
X49202380Y-70340476D01*
X54202381Y-68911904D02*
X54202381Y-72959523D01*
X54202381Y-72959523D02*
X54440476Y-73435714D01*
X54440476Y-73435714D02*
X54678571Y-73673809D01*
X54678571Y-73673809D02*
X55154762Y-73911904D01*
X55154762Y-73911904D02*
X56107143Y-73911904D01*
X56107143Y-73911904D02*
X56583333Y-73673809D01*
X56583333Y-73673809D02*
X56821428Y-73435714D01*
X56821428Y-73435714D02*
X57059524Y-72959523D01*
X57059524Y-72959523D02*
X57059524Y-68911904D01*
X172202380Y-69388095D02*
X172440476Y-69150000D01*
X172440476Y-69150000D02*
X172916666Y-68911904D01*
X172916666Y-68911904D02*
X174107142Y-68911904D01*
X174107142Y-68911904D02*
X174583333Y-69150000D01*
X174583333Y-69150000D02*
X174821428Y-69388095D01*
X174821428Y-69388095D02*
X175059523Y-69864285D01*
X175059523Y-69864285D02*
X175059523Y-70340476D01*
X175059523Y-70340476D02*
X174821428Y-71054761D01*
X174821428Y-71054761D02*
X171964285Y-73911904D01*
X171964285Y-73911904D02*
X175059523Y-73911904D01*
X177202381Y-68911904D02*
X177202381Y-72959523D01*
X177202381Y-72959523D02*
X177440476Y-73435714D01*
X177440476Y-73435714D02*
X177678571Y-73673809D01*
X177678571Y-73673809D02*
X178154762Y-73911904D01*
X178154762Y-73911904D02*
X179107143Y-73911904D01*
X179107143Y-73911904D02*
X179583333Y-73673809D01*
X179583333Y-73673809D02*
X179821428Y-73435714D01*
X179821428Y-73435714D02*
X180059524Y-72959523D01*
X180059524Y-72959523D02*
X180059524Y-68911904D01*
X190297619Y-94686904D02*
X190059523Y-94925000D01*
X190059523Y-94925000D02*
X189583333Y-95163095D01*
X189583333Y-95163095D02*
X188392857Y-95163095D01*
X188392857Y-95163095D02*
X187916666Y-94925000D01*
X187916666Y-94925000D02*
X187678571Y-94686904D01*
X187678571Y-94686904D02*
X187440476Y-94210714D01*
X187440476Y-94210714D02*
X187440476Y-93734523D01*
X187440476Y-93734523D02*
X187678571Y-93020238D01*
X187678571Y-93020238D02*
X190535714Y-90163095D01*
X190535714Y-90163095D02*
X187440476Y-90163095D01*
X185297618Y-90639285D02*
X185059523Y-90401190D01*
X185059523Y-90401190D02*
X185297618Y-90163095D01*
X185297618Y-90163095D02*
X185535714Y-90401190D01*
X185535714Y-90401190D02*
X185297618Y-90639285D01*
X185297618Y-90639285D02*
X185297618Y-90163095D01*
X183154762Y-94686904D02*
X182916666Y-94925000D01*
X182916666Y-94925000D02*
X182440476Y-95163095D01*
X182440476Y-95163095D02*
X181250000Y-95163095D01*
X181250000Y-95163095D02*
X180773809Y-94925000D01*
X180773809Y-94925000D02*
X180535714Y-94686904D01*
X180535714Y-94686904D02*
X180297619Y-94210714D01*
X180297619Y-94210714D02*
X180297619Y-93734523D01*
X180297619Y-93734523D02*
X180535714Y-93020238D01*
X180535714Y-93020238D02*
X183392857Y-90163095D01*
X183392857Y-90163095D02*
X180297619Y-90163095D01*
X175773809Y-95163095D02*
X178154761Y-95163095D01*
X178154761Y-95163095D02*
X178392857Y-92782142D01*
X178392857Y-92782142D02*
X178154761Y-93020238D01*
X178154761Y-93020238D02*
X177678571Y-93258333D01*
X177678571Y-93258333D02*
X176488095Y-93258333D01*
X176488095Y-93258333D02*
X176011904Y-93020238D01*
X176011904Y-93020238D02*
X175773809Y-92782142D01*
X175773809Y-92782142D02*
X175535714Y-92305952D01*
X175535714Y-92305952D02*
X175535714Y-91115476D01*
X175535714Y-91115476D02*
X175773809Y-90639285D01*
X175773809Y-90639285D02*
X176011904Y-90401190D01*
X176011904Y-90401190D02*
X176488095Y-90163095D01*
X176488095Y-90163095D02*
X177678571Y-90163095D01*
X177678571Y-90163095D02*
X178154761Y-90401190D01*
X178154761Y-90401190D02*
X178392857Y-90639285D01*
X173392856Y-95163095D02*
X173392856Y-91115476D01*
X173392856Y-91115476D02*
X173154761Y-90639285D01*
X173154761Y-90639285D02*
X172916666Y-90401190D01*
X172916666Y-90401190D02*
X172440475Y-90163095D01*
X172440475Y-90163095D02*
X171488094Y-90163095D01*
X171488094Y-90163095D02*
X171011904Y-90401190D01*
X171011904Y-90401190D02*
X170773809Y-90639285D01*
X170773809Y-90639285D02*
X170535713Y-91115476D01*
X170535713Y-91115476D02*
X170535713Y-95163095D01*
X139047619Y-94686904D02*
X138809523Y-94925000D01*
X138809523Y-94925000D02*
X138333333Y-95163095D01*
X138333333Y-95163095D02*
X137142857Y-95163095D01*
X137142857Y-95163095D02*
X136666666Y-94925000D01*
X136666666Y-94925000D02*
X136428571Y-94686904D01*
X136428571Y-94686904D02*
X136190476Y-94210714D01*
X136190476Y-94210714D02*
X136190476Y-93734523D01*
X136190476Y-93734523D02*
X136428571Y-93020238D01*
X136428571Y-93020238D02*
X139285714Y-90163095D01*
X139285714Y-90163095D02*
X136190476Y-90163095D01*
X134047618Y-90639285D02*
X133809523Y-90401190D01*
X133809523Y-90401190D02*
X134047618Y-90163095D01*
X134047618Y-90163095D02*
X134285714Y-90401190D01*
X134285714Y-90401190D02*
X134047618Y-90639285D01*
X134047618Y-90639285D02*
X134047618Y-90163095D01*
X132142857Y-95163095D02*
X128809523Y-95163095D01*
X128809523Y-95163095D02*
X130952381Y-90163095D01*
X124523809Y-95163095D02*
X126904761Y-95163095D01*
X126904761Y-95163095D02*
X127142857Y-92782142D01*
X127142857Y-92782142D02*
X126904761Y-93020238D01*
X126904761Y-93020238D02*
X126428571Y-93258333D01*
X126428571Y-93258333D02*
X125238095Y-93258333D01*
X125238095Y-93258333D02*
X124761904Y-93020238D01*
X124761904Y-93020238D02*
X124523809Y-92782142D01*
X124523809Y-92782142D02*
X124285714Y-92305952D01*
X124285714Y-92305952D02*
X124285714Y-91115476D01*
X124285714Y-91115476D02*
X124523809Y-90639285D01*
X124523809Y-90639285D02*
X124761904Y-90401190D01*
X124761904Y-90401190D02*
X125238095Y-90163095D01*
X125238095Y-90163095D02*
X126428571Y-90163095D01*
X126428571Y-90163095D02*
X126904761Y-90401190D01*
X126904761Y-90401190D02*
X127142857Y-90639285D01*
X122142856Y-95163095D02*
X122142856Y-91115476D01*
X122142856Y-91115476D02*
X121904761Y-90639285D01*
X121904761Y-90639285D02*
X121666666Y-90401190D01*
X121666666Y-90401190D02*
X121190475Y-90163095D01*
X121190475Y-90163095D02*
X120238094Y-90163095D01*
X120238094Y-90163095D02*
X119761904Y-90401190D01*
X119761904Y-90401190D02*
X119523809Y-90639285D01*
X119523809Y-90639285D02*
X119285713Y-91115476D01*
X119285713Y-91115476D02*
X119285713Y-95163095D01*
X74535714Y-95163095D02*
X71440476Y-95163095D01*
X71440476Y-95163095D02*
X73107142Y-93258333D01*
X73107142Y-93258333D02*
X72392857Y-93258333D01*
X72392857Y-93258333D02*
X71916666Y-93020238D01*
X71916666Y-93020238D02*
X71678571Y-92782142D01*
X71678571Y-92782142D02*
X71440476Y-92305952D01*
X71440476Y-92305952D02*
X71440476Y-91115476D01*
X71440476Y-91115476D02*
X71678571Y-90639285D01*
X71678571Y-90639285D02*
X71916666Y-90401190D01*
X71916666Y-90401190D02*
X72392857Y-90163095D01*
X72392857Y-90163095D02*
X73821428Y-90163095D01*
X73821428Y-90163095D02*
X74297619Y-90401190D01*
X74297619Y-90401190D02*
X74535714Y-90639285D01*
X69297618Y-95163095D02*
X69297618Y-91115476D01*
X69297618Y-91115476D02*
X69059523Y-90639285D01*
X69059523Y-90639285D02*
X68821428Y-90401190D01*
X68821428Y-90401190D02*
X68345237Y-90163095D01*
X68345237Y-90163095D02*
X67392856Y-90163095D01*
X67392856Y-90163095D02*
X66916666Y-90401190D01*
X66916666Y-90401190D02*
X66678571Y-90639285D01*
X66678571Y-90639285D02*
X66440475Y-91115476D01*
X66440475Y-91115476D02*
X66440475Y-95163095D01*
X70309523Y-73911904D02*
X67452380Y-73911904D01*
X68880952Y-73911904D02*
X68880952Y-68911904D01*
X68880952Y-68911904D02*
X68404761Y-69626190D01*
X68404761Y-69626190D02*
X67928571Y-70102380D01*
X67928571Y-70102380D02*
X67452380Y-70340476D01*
X72452381Y-73435714D02*
X72690476Y-73673809D01*
X72690476Y-73673809D02*
X72452381Y-73911904D01*
X72452381Y-73911904D02*
X72214285Y-73673809D01*
X72214285Y-73673809D02*
X72452381Y-73435714D01*
X72452381Y-73435714D02*
X72452381Y-73911904D01*
X74595237Y-69388095D02*
X74833333Y-69150000D01*
X74833333Y-69150000D02*
X75309523Y-68911904D01*
X75309523Y-68911904D02*
X76499999Y-68911904D01*
X76499999Y-68911904D02*
X76976190Y-69150000D01*
X76976190Y-69150000D02*
X77214285Y-69388095D01*
X77214285Y-69388095D02*
X77452380Y-69864285D01*
X77452380Y-69864285D02*
X77452380Y-70340476D01*
X77452380Y-70340476D02*
X77214285Y-71054761D01*
X77214285Y-71054761D02*
X74357142Y-73911904D01*
X74357142Y-73911904D02*
X77452380Y-73911904D01*
X81976190Y-68911904D02*
X79595238Y-68911904D01*
X79595238Y-68911904D02*
X79357142Y-71292857D01*
X79357142Y-71292857D02*
X79595238Y-71054761D01*
X79595238Y-71054761D02*
X80071428Y-70816666D01*
X80071428Y-70816666D02*
X81261904Y-70816666D01*
X81261904Y-70816666D02*
X81738095Y-71054761D01*
X81738095Y-71054761D02*
X81976190Y-71292857D01*
X81976190Y-71292857D02*
X82214285Y-71769047D01*
X82214285Y-71769047D02*
X82214285Y-72959523D01*
X82214285Y-72959523D02*
X81976190Y-73435714D01*
X81976190Y-73435714D02*
X81738095Y-73673809D01*
X81738095Y-73673809D02*
X81261904Y-73911904D01*
X81261904Y-73911904D02*
X80071428Y-73911904D01*
X80071428Y-73911904D02*
X79595238Y-73673809D01*
X79595238Y-73673809D02*
X79357142Y-73435714D01*
X84357143Y-68911904D02*
X84357143Y-72959523D01*
X84357143Y-72959523D02*
X84595238Y-73435714D01*
X84595238Y-73435714D02*
X84833333Y-73673809D01*
X84833333Y-73673809D02*
X85309524Y-73911904D01*
X85309524Y-73911904D02*
X86261905Y-73911904D01*
X86261905Y-73911904D02*
X86738095Y-73673809D01*
X86738095Y-73673809D02*
X86976190Y-73435714D01*
X86976190Y-73435714D02*
X87214286Y-72959523D01*
X87214286Y-72959523D02*
X87214286Y-68911904D01*
D12*
X220196095Y-85247380D02*
X220196095Y-84247380D01*
X220767523Y-85247380D02*
X220338952Y-84675952D01*
X220767523Y-84247380D02*
X220196095Y-84818809D01*
X221624666Y-85247380D02*
X221624666Y-84723571D01*
X221624666Y-84723571D02*
X221577047Y-84628333D01*
X221577047Y-84628333D02*
X221481809Y-84580714D01*
X221481809Y-84580714D02*
X221291333Y-84580714D01*
X221291333Y-84580714D02*
X221196095Y-84628333D01*
X221624666Y-85199761D02*
X221529428Y-85247380D01*
X221529428Y-85247380D02*
X221291333Y-85247380D01*
X221291333Y-85247380D02*
X221196095Y-85199761D01*
X221196095Y-85199761D02*
X221148476Y-85104523D01*
X221148476Y-85104523D02*
X221148476Y-85009285D01*
X221148476Y-85009285D02*
X221196095Y-84914047D01*
X221196095Y-84914047D02*
X221291333Y-84866428D01*
X221291333Y-84866428D02*
X221529428Y-84866428D01*
X221529428Y-84866428D02*
X221624666Y-84818809D01*
X222100857Y-85247380D02*
X222100857Y-84580714D01*
X222100857Y-84247380D02*
X222053238Y-84295000D01*
X222053238Y-84295000D02*
X222100857Y-84342619D01*
X222100857Y-84342619D02*
X222148476Y-84295000D01*
X222148476Y-84295000D02*
X222100857Y-84247380D01*
X222100857Y-84247380D02*
X222100857Y-84342619D01*
X222719904Y-85247380D02*
X222624666Y-85199761D01*
X222624666Y-85199761D02*
X222577047Y-85104523D01*
X222577047Y-85104523D02*
X222577047Y-84247380D01*
X223100857Y-85247380D02*
X223100857Y-84247380D01*
X223529428Y-85247380D02*
X223529428Y-84723571D01*
X223529428Y-84723571D02*
X223481809Y-84628333D01*
X223481809Y-84628333D02*
X223386571Y-84580714D01*
X223386571Y-84580714D02*
X223243714Y-84580714D01*
X223243714Y-84580714D02*
X223148476Y-84628333D01*
X223148476Y-84628333D02*
X223100857Y-84675952D01*
X224605619Y-85247380D02*
X224605619Y-84247380D01*
X224605619Y-84723571D02*
X225177047Y-84723571D01*
X225177047Y-85247380D02*
X225177047Y-84247380D01*
X225796095Y-85247380D02*
X225700857Y-85199761D01*
X225700857Y-85199761D02*
X225653238Y-85152142D01*
X225653238Y-85152142D02*
X225605619Y-85056904D01*
X225605619Y-85056904D02*
X225605619Y-84771190D01*
X225605619Y-84771190D02*
X225653238Y-84675952D01*
X225653238Y-84675952D02*
X225700857Y-84628333D01*
X225700857Y-84628333D02*
X225796095Y-84580714D01*
X225796095Y-84580714D02*
X225938952Y-84580714D01*
X225938952Y-84580714D02*
X226034190Y-84628333D01*
X226034190Y-84628333D02*
X226081809Y-84675952D01*
X226081809Y-84675952D02*
X226129428Y-84771190D01*
X226129428Y-84771190D02*
X226129428Y-85056904D01*
X226129428Y-85056904D02*
X226081809Y-85152142D01*
X226081809Y-85152142D02*
X226034190Y-85199761D01*
X226034190Y-85199761D02*
X225938952Y-85247380D01*
X225938952Y-85247380D02*
X225796095Y-85247380D01*
X226415143Y-84580714D02*
X226796095Y-84580714D01*
X226558000Y-84247380D02*
X226558000Y-85104523D01*
X226558000Y-85104523D02*
X226605619Y-85199761D01*
X226605619Y-85199761D02*
X226700857Y-85247380D01*
X226700857Y-85247380D02*
X226796095Y-85247380D01*
X227081810Y-85199761D02*
X227177048Y-85247380D01*
X227177048Y-85247380D02*
X227367524Y-85247380D01*
X227367524Y-85247380D02*
X227462762Y-85199761D01*
X227462762Y-85199761D02*
X227510381Y-85104523D01*
X227510381Y-85104523D02*
X227510381Y-85056904D01*
X227510381Y-85056904D02*
X227462762Y-84961666D01*
X227462762Y-84961666D02*
X227367524Y-84914047D01*
X227367524Y-84914047D02*
X227224667Y-84914047D01*
X227224667Y-84914047D02*
X227129429Y-84866428D01*
X227129429Y-84866428D02*
X227081810Y-84771190D01*
X227081810Y-84771190D02*
X227081810Y-84723571D01*
X227081810Y-84723571D02*
X227129429Y-84628333D01*
X227129429Y-84628333D02*
X227224667Y-84580714D01*
X227224667Y-84580714D02*
X227367524Y-84580714D01*
X227367524Y-84580714D02*
X227462762Y-84628333D01*
X227843715Y-84580714D02*
X228034191Y-85247380D01*
X228034191Y-85247380D02*
X228224667Y-84771190D01*
X228224667Y-84771190D02*
X228415143Y-85247380D01*
X228415143Y-85247380D02*
X228605619Y-84580714D01*
X229415143Y-85247380D02*
X229415143Y-84723571D01*
X229415143Y-84723571D02*
X229367524Y-84628333D01*
X229367524Y-84628333D02*
X229272286Y-84580714D01*
X229272286Y-84580714D02*
X229081810Y-84580714D01*
X229081810Y-84580714D02*
X228986572Y-84628333D01*
X229415143Y-85199761D02*
X229319905Y-85247380D01*
X229319905Y-85247380D02*
X229081810Y-85247380D01*
X229081810Y-85247380D02*
X228986572Y-85199761D01*
X228986572Y-85199761D02*
X228938953Y-85104523D01*
X228938953Y-85104523D02*
X228938953Y-85009285D01*
X228938953Y-85009285D02*
X228986572Y-84914047D01*
X228986572Y-84914047D02*
X229081810Y-84866428D01*
X229081810Y-84866428D02*
X229319905Y-84866428D01*
X229319905Y-84866428D02*
X229415143Y-84818809D01*
X229891334Y-84580714D02*
X229891334Y-85580714D01*
X229891334Y-84628333D02*
X229986572Y-84580714D01*
X229986572Y-84580714D02*
X230177048Y-84580714D01*
X230177048Y-84580714D02*
X230272286Y-84628333D01*
X230272286Y-84628333D02*
X230319905Y-84675952D01*
X230319905Y-84675952D02*
X230367524Y-84771190D01*
X230367524Y-84771190D02*
X230367524Y-85056904D01*
X230367524Y-85056904D02*
X230319905Y-85152142D01*
X230319905Y-85152142D02*
X230272286Y-85199761D01*
X230272286Y-85199761D02*
X230177048Y-85247380D01*
X230177048Y-85247380D02*
X229986572Y-85247380D01*
X229986572Y-85247380D02*
X229891334Y-85199761D01*
X239995238Y-84467380D02*
X239995238Y-83467380D01*
X240566666Y-84467380D02*
X240138095Y-83895952D01*
X240566666Y-83467380D02*
X239995238Y-84038809D01*
X241423809Y-84467380D02*
X241423809Y-83943571D01*
X241423809Y-83943571D02*
X241376190Y-83848333D01*
X241376190Y-83848333D02*
X241280952Y-83800714D01*
X241280952Y-83800714D02*
X241090476Y-83800714D01*
X241090476Y-83800714D02*
X240995238Y-83848333D01*
X241423809Y-84419761D02*
X241328571Y-84467380D01*
X241328571Y-84467380D02*
X241090476Y-84467380D01*
X241090476Y-84467380D02*
X240995238Y-84419761D01*
X240995238Y-84419761D02*
X240947619Y-84324523D01*
X240947619Y-84324523D02*
X240947619Y-84229285D01*
X240947619Y-84229285D02*
X240995238Y-84134047D01*
X240995238Y-84134047D02*
X241090476Y-84086428D01*
X241090476Y-84086428D02*
X241328571Y-84086428D01*
X241328571Y-84086428D02*
X241423809Y-84038809D01*
X241900000Y-84467380D02*
X241900000Y-83800714D01*
X241900000Y-83467380D02*
X241852381Y-83515000D01*
X241852381Y-83515000D02*
X241900000Y-83562619D01*
X241900000Y-83562619D02*
X241947619Y-83515000D01*
X241947619Y-83515000D02*
X241900000Y-83467380D01*
X241900000Y-83467380D02*
X241900000Y-83562619D01*
X242519047Y-84467380D02*
X242423809Y-84419761D01*
X242423809Y-84419761D02*
X242376190Y-84324523D01*
X242376190Y-84324523D02*
X242376190Y-83467380D01*
X242900000Y-84467380D02*
X242900000Y-83467380D01*
X243328571Y-84467380D02*
X243328571Y-83943571D01*
X243328571Y-83943571D02*
X243280952Y-83848333D01*
X243280952Y-83848333D02*
X243185714Y-83800714D01*
X243185714Y-83800714D02*
X243042857Y-83800714D01*
X243042857Y-83800714D02*
X242947619Y-83848333D01*
X242947619Y-83848333D02*
X242900000Y-83895952D01*
X244976190Y-84372142D02*
X244928571Y-84419761D01*
X244928571Y-84419761D02*
X244785714Y-84467380D01*
X244785714Y-84467380D02*
X244690476Y-84467380D01*
X244690476Y-84467380D02*
X244547619Y-84419761D01*
X244547619Y-84419761D02*
X244452381Y-84324523D01*
X244452381Y-84324523D02*
X244404762Y-84229285D01*
X244404762Y-84229285D02*
X244357143Y-84038809D01*
X244357143Y-84038809D02*
X244357143Y-83895952D01*
X244357143Y-83895952D02*
X244404762Y-83705476D01*
X244404762Y-83705476D02*
X244452381Y-83610238D01*
X244452381Y-83610238D02*
X244547619Y-83515000D01*
X244547619Y-83515000D02*
X244690476Y-83467380D01*
X244690476Y-83467380D02*
X244785714Y-83467380D01*
X244785714Y-83467380D02*
X244928571Y-83515000D01*
X244928571Y-83515000D02*
X244976190Y-83562619D01*
X245404762Y-84467380D02*
X245404762Y-83467380D01*
X245833333Y-84467380D02*
X245833333Y-83943571D01*
X245833333Y-83943571D02*
X245785714Y-83848333D01*
X245785714Y-83848333D02*
X245690476Y-83800714D01*
X245690476Y-83800714D02*
X245547619Y-83800714D01*
X245547619Y-83800714D02*
X245452381Y-83848333D01*
X245452381Y-83848333D02*
X245404762Y-83895952D01*
X246452381Y-84467380D02*
X246357143Y-84419761D01*
X246357143Y-84419761D02*
X246309524Y-84372142D01*
X246309524Y-84372142D02*
X246261905Y-84276904D01*
X246261905Y-84276904D02*
X246261905Y-83991190D01*
X246261905Y-83991190D02*
X246309524Y-83895952D01*
X246309524Y-83895952D02*
X246357143Y-83848333D01*
X246357143Y-83848333D02*
X246452381Y-83800714D01*
X246452381Y-83800714D02*
X246595238Y-83800714D01*
X246595238Y-83800714D02*
X246690476Y-83848333D01*
X246690476Y-83848333D02*
X246738095Y-83895952D01*
X246738095Y-83895952D02*
X246785714Y-83991190D01*
X246785714Y-83991190D02*
X246785714Y-84276904D01*
X246785714Y-84276904D02*
X246738095Y-84372142D01*
X246738095Y-84372142D02*
X246690476Y-84419761D01*
X246690476Y-84419761D02*
X246595238Y-84467380D01*
X246595238Y-84467380D02*
X246452381Y-84467380D01*
X247642857Y-84419761D02*
X247547619Y-84467380D01*
X247547619Y-84467380D02*
X247357143Y-84467380D01*
X247357143Y-84467380D02*
X247261905Y-84419761D01*
X247261905Y-84419761D02*
X247214286Y-84372142D01*
X247214286Y-84372142D02*
X247166667Y-84276904D01*
X247166667Y-84276904D02*
X247166667Y-83991190D01*
X247166667Y-83991190D02*
X247214286Y-83895952D01*
X247214286Y-83895952D02*
X247261905Y-83848333D01*
X247261905Y-83848333D02*
X247357143Y-83800714D01*
X247357143Y-83800714D02*
X247547619Y-83800714D01*
X247547619Y-83800714D02*
X247642857Y-83848333D01*
X248528572Y-83467380D02*
X248861905Y-84467380D01*
X248861905Y-84467380D02*
X249195238Y-83467380D01*
X249480953Y-83562619D02*
X249528572Y-83515000D01*
X249528572Y-83515000D02*
X249623810Y-83467380D01*
X249623810Y-83467380D02*
X249861905Y-83467380D01*
X249861905Y-83467380D02*
X249957143Y-83515000D01*
X249957143Y-83515000D02*
X250004762Y-83562619D01*
X250004762Y-83562619D02*
X250052381Y-83657857D01*
X250052381Y-83657857D02*
X250052381Y-83753095D01*
X250052381Y-83753095D02*
X250004762Y-83895952D01*
X250004762Y-83895952D02*
X249433334Y-84467380D01*
X249433334Y-84467380D02*
X250052381Y-84467380D01*
X239995238Y-62967380D02*
X239995238Y-61967380D01*
X240566666Y-62967380D02*
X240138095Y-62395952D01*
X240566666Y-61967380D02*
X239995238Y-62538809D01*
X241423809Y-62967380D02*
X241423809Y-62443571D01*
X241423809Y-62443571D02*
X241376190Y-62348333D01*
X241376190Y-62348333D02*
X241280952Y-62300714D01*
X241280952Y-62300714D02*
X241090476Y-62300714D01*
X241090476Y-62300714D02*
X240995238Y-62348333D01*
X241423809Y-62919761D02*
X241328571Y-62967380D01*
X241328571Y-62967380D02*
X241090476Y-62967380D01*
X241090476Y-62967380D02*
X240995238Y-62919761D01*
X240995238Y-62919761D02*
X240947619Y-62824523D01*
X240947619Y-62824523D02*
X240947619Y-62729285D01*
X240947619Y-62729285D02*
X240995238Y-62634047D01*
X240995238Y-62634047D02*
X241090476Y-62586428D01*
X241090476Y-62586428D02*
X241328571Y-62586428D01*
X241328571Y-62586428D02*
X241423809Y-62538809D01*
X241900000Y-62967380D02*
X241900000Y-62300714D01*
X241900000Y-61967380D02*
X241852381Y-62015000D01*
X241852381Y-62015000D02*
X241900000Y-62062619D01*
X241900000Y-62062619D02*
X241947619Y-62015000D01*
X241947619Y-62015000D02*
X241900000Y-61967380D01*
X241900000Y-61967380D02*
X241900000Y-62062619D01*
X242519047Y-62967380D02*
X242423809Y-62919761D01*
X242423809Y-62919761D02*
X242376190Y-62824523D01*
X242376190Y-62824523D02*
X242376190Y-61967380D01*
X242900000Y-62967380D02*
X242900000Y-61967380D01*
X243328571Y-62967380D02*
X243328571Y-62443571D01*
X243328571Y-62443571D02*
X243280952Y-62348333D01*
X243280952Y-62348333D02*
X243185714Y-62300714D01*
X243185714Y-62300714D02*
X243042857Y-62300714D01*
X243042857Y-62300714D02*
X242947619Y-62348333D01*
X242947619Y-62348333D02*
X242900000Y-62395952D01*
X244976190Y-62872142D02*
X244928571Y-62919761D01*
X244928571Y-62919761D02*
X244785714Y-62967380D01*
X244785714Y-62967380D02*
X244690476Y-62967380D01*
X244690476Y-62967380D02*
X244547619Y-62919761D01*
X244547619Y-62919761D02*
X244452381Y-62824523D01*
X244452381Y-62824523D02*
X244404762Y-62729285D01*
X244404762Y-62729285D02*
X244357143Y-62538809D01*
X244357143Y-62538809D02*
X244357143Y-62395952D01*
X244357143Y-62395952D02*
X244404762Y-62205476D01*
X244404762Y-62205476D02*
X244452381Y-62110238D01*
X244452381Y-62110238D02*
X244547619Y-62015000D01*
X244547619Y-62015000D02*
X244690476Y-61967380D01*
X244690476Y-61967380D02*
X244785714Y-61967380D01*
X244785714Y-61967380D02*
X244928571Y-62015000D01*
X244928571Y-62015000D02*
X244976190Y-62062619D01*
X245404762Y-62967380D02*
X245404762Y-61967380D01*
X245833333Y-62967380D02*
X245833333Y-62443571D01*
X245833333Y-62443571D02*
X245785714Y-62348333D01*
X245785714Y-62348333D02*
X245690476Y-62300714D01*
X245690476Y-62300714D02*
X245547619Y-62300714D01*
X245547619Y-62300714D02*
X245452381Y-62348333D01*
X245452381Y-62348333D02*
X245404762Y-62395952D01*
X246452381Y-62967380D02*
X246357143Y-62919761D01*
X246357143Y-62919761D02*
X246309524Y-62872142D01*
X246309524Y-62872142D02*
X246261905Y-62776904D01*
X246261905Y-62776904D02*
X246261905Y-62491190D01*
X246261905Y-62491190D02*
X246309524Y-62395952D01*
X246309524Y-62395952D02*
X246357143Y-62348333D01*
X246357143Y-62348333D02*
X246452381Y-62300714D01*
X246452381Y-62300714D02*
X246595238Y-62300714D01*
X246595238Y-62300714D02*
X246690476Y-62348333D01*
X246690476Y-62348333D02*
X246738095Y-62395952D01*
X246738095Y-62395952D02*
X246785714Y-62491190D01*
X246785714Y-62491190D02*
X246785714Y-62776904D01*
X246785714Y-62776904D02*
X246738095Y-62872142D01*
X246738095Y-62872142D02*
X246690476Y-62919761D01*
X246690476Y-62919761D02*
X246595238Y-62967380D01*
X246595238Y-62967380D02*
X246452381Y-62967380D01*
X247642857Y-62919761D02*
X247547619Y-62967380D01*
X247547619Y-62967380D02*
X247357143Y-62967380D01*
X247357143Y-62967380D02*
X247261905Y-62919761D01*
X247261905Y-62919761D02*
X247214286Y-62872142D01*
X247214286Y-62872142D02*
X247166667Y-62776904D01*
X247166667Y-62776904D02*
X247166667Y-62491190D01*
X247166667Y-62491190D02*
X247214286Y-62395952D01*
X247214286Y-62395952D02*
X247261905Y-62348333D01*
X247261905Y-62348333D02*
X247357143Y-62300714D01*
X247357143Y-62300714D02*
X247547619Y-62300714D01*
X247547619Y-62300714D02*
X247642857Y-62348333D01*
X248528572Y-61967380D02*
X248861905Y-62967380D01*
X248861905Y-62967380D02*
X249195238Y-61967380D01*
X250052381Y-62967380D02*
X249480953Y-62967380D01*
X249766667Y-62967380D02*
X249766667Y-61967380D01*
X249766667Y-61967380D02*
X249671429Y-62110238D01*
X249671429Y-62110238D02*
X249576191Y-62205476D01*
X249576191Y-62205476D02*
X249480953Y-62253095D01*
X222340951Y-63952142D02*
X222293332Y-63999761D01*
X222293332Y-63999761D02*
X222150475Y-64047380D01*
X222150475Y-64047380D02*
X222055237Y-64047380D01*
X222055237Y-64047380D02*
X221912380Y-63999761D01*
X221912380Y-63999761D02*
X221817142Y-63904523D01*
X221817142Y-63904523D02*
X221769523Y-63809285D01*
X221769523Y-63809285D02*
X221721904Y-63618809D01*
X221721904Y-63618809D02*
X221721904Y-63475952D01*
X221721904Y-63475952D02*
X221769523Y-63285476D01*
X221769523Y-63285476D02*
X221817142Y-63190238D01*
X221817142Y-63190238D02*
X221912380Y-63095000D01*
X221912380Y-63095000D02*
X222055237Y-63047380D01*
X222055237Y-63047380D02*
X222150475Y-63047380D01*
X222150475Y-63047380D02*
X222293332Y-63095000D01*
X222293332Y-63095000D02*
X222340951Y-63142619D01*
X222769523Y-64047380D02*
X222769523Y-63047380D01*
X223198094Y-64047380D02*
X223198094Y-63523571D01*
X223198094Y-63523571D02*
X223150475Y-63428333D01*
X223150475Y-63428333D02*
X223055237Y-63380714D01*
X223055237Y-63380714D02*
X222912380Y-63380714D01*
X222912380Y-63380714D02*
X222817142Y-63428333D01*
X222817142Y-63428333D02*
X222769523Y-63475952D01*
X224055237Y-63999761D02*
X223959999Y-64047380D01*
X223959999Y-64047380D02*
X223769523Y-64047380D01*
X223769523Y-64047380D02*
X223674285Y-63999761D01*
X223674285Y-63999761D02*
X223626666Y-63904523D01*
X223626666Y-63904523D02*
X223626666Y-63523571D01*
X223626666Y-63523571D02*
X223674285Y-63428333D01*
X223674285Y-63428333D02*
X223769523Y-63380714D01*
X223769523Y-63380714D02*
X223959999Y-63380714D01*
X223959999Y-63380714D02*
X224055237Y-63428333D01*
X224055237Y-63428333D02*
X224102856Y-63523571D01*
X224102856Y-63523571D02*
X224102856Y-63618809D01*
X224102856Y-63618809D02*
X223626666Y-63714047D01*
X224531428Y-64047380D02*
X224531428Y-63380714D01*
X224531428Y-63571190D02*
X224579047Y-63475952D01*
X224579047Y-63475952D02*
X224626666Y-63428333D01*
X224626666Y-63428333D02*
X224721904Y-63380714D01*
X224721904Y-63380714D02*
X224817142Y-63380714D01*
X225150476Y-64047380D02*
X225150476Y-63380714D01*
X225150476Y-63571190D02*
X225198095Y-63475952D01*
X225198095Y-63475952D02*
X225245714Y-63428333D01*
X225245714Y-63428333D02*
X225340952Y-63380714D01*
X225340952Y-63380714D02*
X225436190Y-63380714D01*
X225674286Y-63380714D02*
X225912381Y-64047380D01*
X226150476Y-63380714D02*
X225912381Y-64047380D01*
X225912381Y-64047380D02*
X225817143Y-64285476D01*
X225817143Y-64285476D02*
X225769524Y-64333095D01*
X225769524Y-64333095D02*
X225674286Y-64380714D01*
X227131429Y-64047380D02*
X227131429Y-63047380D01*
X227131429Y-63047380D02*
X227464762Y-63761666D01*
X227464762Y-63761666D02*
X227798095Y-63047380D01*
X227798095Y-63047380D02*
X227798095Y-64047380D01*
X228179048Y-63047380D02*
X228845714Y-64047380D01*
X228845714Y-63047380D02*
X228179048Y-64047380D01*
D13*
X218158000Y-85780000D02*
X218158000Y-99980000D01*
X218158000Y-99980000D02*
X232358000Y-99980000D01*
X232358000Y-85780000D02*
X218158000Y-85780000D01*
X232358000Y-99980000D02*
X232358000Y-85780000D01*
X237400000Y-85500000D02*
X237400000Y-100700000D01*
X237400000Y-100700000D02*
X252600000Y-100700000D01*
X252600000Y-85500000D02*
X237400000Y-85500000D01*
X252600000Y-100700000D02*
X252600000Y-85500000D01*
X237400000Y-64000000D02*
X237400000Y-79200000D01*
X237400000Y-79200000D02*
X252600000Y-79200000D01*
X252600000Y-64000000D02*
X237400000Y-64000000D01*
X252600000Y-79200000D02*
X252600000Y-64000000D01*
X218160000Y-64580000D02*
X218160000Y-78780000D01*
X218160000Y-78780000D02*
X232360000Y-78780000D01*
X232360000Y-64580000D02*
X218160000Y-64580000D01*
X232360000Y-78780000D02*
X232360000Y-64580000D01*
%LPC*%
D14*
X220178000Y-92880000D03*
D15*
X221448000Y-90340000D03*
D16*
X225258000Y-92880000D03*
D15*
X227798000Y-87800000D03*
D14*
X230338000Y-92880000D03*
D17*
X240000000Y-98250000D03*
D18*
X245000000Y-87200000D03*
D19*
X245000000Y-93100000D03*
D18*
X250000000Y-89300000D03*
D20*
X239500000Y-71600000D03*
D18*
X245000000Y-65700000D03*
D21*
X245000000Y-71600000D03*
D18*
X250000000Y-67800000D03*
D20*
X250500000Y-71600000D03*
D14*
X220180000Y-71680000D03*
D22*
X221450000Y-69140000D03*
D16*
X225260000Y-71680000D03*
D22*
X227800000Y-66600000D03*
D14*
X230340000Y-71680000D03*
M02*
