%TF.GenerationSoftware,KiCad,Pcbnew,7.0.0-da2b9df05c~171~ubuntu22.04.1*%
%TF.CreationDate,2023-03-08T14:52:38+00:00*%
%TF.ProjectId,keycap-ruler,6b657963-6170-42d7-9275-6c65722e6b69,rev?*%
%TF.SameCoordinates,Original*%
%TF.FileFunction,Profile,NP*%
%FSLAX46Y46*%
G04 Gerber Fmt 4.6, Leading zero omitted, Abs format (unit mm)*
G04 Created by KiCad (PCBNEW 7.0.0-da2b9df05c~171~ubuntu22.04.1) date 2023-03-08 14:52:38*
%MOMM*%
%LPD*%
G01*
G04 APERTURE LIST*
%TA.AperFunction,Profile*%
%ADD10C,0.150000*%
%TD*%
G04 APERTURE END LIST*
D10*
X253372830Y-60156475D02*
X253651878Y-60175694D01*
X253926868Y-60207343D01*
X254197456Y-60251110D01*
X254463296Y-60306681D01*
X254724044Y-60373745D01*
X254979353Y-60451988D01*
X255228879Y-60541098D01*
X255472276Y-60640762D01*
X255709200Y-60750667D01*
X255939304Y-60870502D01*
X256162244Y-60999952D01*
X256377674Y-61138705D01*
X256585249Y-61286449D01*
X256784625Y-61442871D01*
X256975455Y-61607658D01*
X257157394Y-61780498D01*
X257330097Y-61961077D01*
X257493220Y-62149084D01*
X257646415Y-62344205D01*
X257789340Y-62546128D01*
X257921647Y-62754539D01*
X258042992Y-62969127D01*
X258153030Y-63189579D01*
X258251415Y-63415582D01*
X258337803Y-63646822D01*
X258411847Y-63882989D01*
X258473203Y-64123768D01*
X258521525Y-64368847D01*
X258556468Y-64617914D01*
X258577687Y-64870655D01*
X258584837Y-65126759D01*
X258584837Y-99964071D01*
X258577687Y-100220174D01*
X258556468Y-100472915D01*
X258521525Y-100721982D01*
X258473203Y-100967061D01*
X258411847Y-101207840D01*
X258337803Y-101444006D01*
X258251415Y-101675246D01*
X258153030Y-101901249D01*
X258042992Y-102121700D01*
X257921647Y-102336288D01*
X257789340Y-102544700D01*
X257646415Y-102746622D01*
X257493220Y-102941743D01*
X257330097Y-103129750D01*
X257157394Y-103310329D01*
X256975455Y-103483169D01*
X256784625Y-103647956D01*
X256585249Y-103804378D01*
X256377674Y-103952122D01*
X256162244Y-104090876D01*
X255939304Y-104220326D01*
X255709200Y-104340160D01*
X255472276Y-104450066D01*
X255228879Y-104549730D01*
X254979353Y-104638840D01*
X254724044Y-104717083D01*
X254463296Y-104784147D01*
X254197456Y-104839718D01*
X253926868Y-104883485D01*
X253651878Y-104915134D01*
X253372830Y-104934353D01*
X253090071Y-104940828D01*
X44288779Y-104940828D01*
X44006018Y-104934353D01*
X43726970Y-104915134D01*
X43451979Y-104883485D01*
X43181391Y-104839718D01*
X42915550Y-104784147D01*
X42654802Y-104717083D01*
X42399492Y-104638840D01*
X42149966Y-104549730D01*
X41906569Y-104450066D01*
X41669645Y-104340160D01*
X41439541Y-104220326D01*
X41216601Y-104090876D01*
X41001170Y-103952122D01*
X40793595Y-103804378D01*
X40594219Y-103647956D01*
X40403390Y-103483169D01*
X40221450Y-103310329D01*
X40048747Y-103129750D01*
X39885625Y-102941743D01*
X39732429Y-102746622D01*
X39589505Y-102544700D01*
X39457198Y-102336288D01*
X39335853Y-102121700D01*
X39225815Y-101901249D01*
X39127430Y-101675246D01*
X39041043Y-101444006D01*
X38966998Y-101207840D01*
X38905643Y-100967061D01*
X38857321Y-100721982D01*
X38822377Y-100472915D01*
X38801158Y-100220174D01*
X38794009Y-99964071D01*
X38794009Y-65126759D01*
X38801158Y-64870655D01*
X38822377Y-64617914D01*
X38857321Y-64368847D01*
X38905643Y-64123768D01*
X38966998Y-63882989D01*
X39041043Y-63646822D01*
X39127430Y-63415582D01*
X39225815Y-63189579D01*
X39335853Y-62969127D01*
X39457198Y-62754539D01*
X39589505Y-62546128D01*
X39732429Y-62344205D01*
X39885625Y-62149084D01*
X40048747Y-61961077D01*
X40221450Y-61780498D01*
X40403390Y-61607658D01*
X40594219Y-61442871D01*
X40793595Y-61286449D01*
X41001170Y-61138705D01*
X41216601Y-60999952D01*
X41439541Y-60870502D01*
X41669645Y-60750667D01*
X41906569Y-60640762D01*
X42149966Y-60541098D01*
X42399492Y-60451988D01*
X42654802Y-60373745D01*
X42915550Y-60306681D01*
X43181391Y-60251110D01*
X43451979Y-60207343D01*
X43726970Y-60175694D01*
X44006018Y-60156475D01*
X44288779Y-60150000D01*
X253090071Y-60150000D01*
X253372830Y-60156475D01*
M02*
