%TF.GenerationSoftware,KiCad,Pcbnew,7.0.0-da2b9df05c~171~ubuntu22.04.1*%
%TF.CreationDate,2023-03-08T14:52:38+00:00*%
%TF.ProjectId,keycap-ruler,6b657963-6170-42d7-9275-6c65722e6b69,rev?*%
%TF.SameCoordinates,Original*%
%TF.FileFunction,Legend,Bot*%
%TF.FilePolarity,Positive*%
%FSLAX46Y46*%
G04 Gerber Fmt 4.6, Leading zero omitted, Abs format (unit mm)*
G04 Created by KiCad (PCBNEW 7.0.0-da2b9df05c~171~ubuntu22.04.1) date 2023-03-08 14:52:38*
%MOMM*%
%LPD*%
G01*
G04 APERTURE LIST*
G04 Aperture macros list*
%AMRoundRect*
0 Rectangle with rounded corners*
0 $1 Rounding radius*
0 $2 $3 $4 $5 $6 $7 $8 $9 X,Y pos of 4 corners*
0 Add a 4 corners polygon primitive as box body*
4,1,4,$2,$3,$4,$5,$6,$7,$8,$9,$2,$3,0*
0 Add four circle primitives for the rounded corners*
1,1,$1+$1,$2,$3*
1,1,$1+$1,$4,$5*
1,1,$1+$1,$6,$7*
1,1,$1+$1,$8,$9*
0 Add four rect primitives between the rounded corners*
20,1,$1+$1,$2,$3,$4,$5,0*
20,1,$1+$1,$4,$5,$6,$7,0*
20,1,$1+$1,$6,$7,$8,$9,0*
20,1,$1+$1,$8,$9,$2,$3,0*%
G04 Aperture macros list end*
%ADD10C,0.500000*%
%ADD11C,1.000000*%
%ADD12C,0.300000*%
%ADD13C,0.120000*%
%ADD14C,1.750000*%
%ADD15C,3.050000*%
%ADD16C,4.000000*%
%ADD17RoundRect,0.250000X-1.025000X-1.000000X1.025000X-1.000000X1.025000X1.000000X-1.025000X1.000000X0*%
%ADD18C,2.600000*%
%ADD19C,5.050000*%
%ADD20C,2.200000*%
%ADD21C,1.900000*%
%ADD22C,3.450000*%
%ADD23C,2.500000*%
G04 APERTURE END LIST*
D10*
X44250000Y-63000000D02*
X49750000Y-63000000D01*
X51750000Y-63000000D02*
X57250000Y-63000000D01*
X59250000Y-63000000D02*
X64750000Y-63000000D01*
X66750000Y-63000000D02*
X72250000Y-63000000D01*
X74250000Y-63000000D02*
X79750000Y-63000000D01*
X81750000Y-63000000D02*
X87250000Y-63000000D01*
X89250000Y-63000000D02*
X94750000Y-63000000D01*
X96750000Y-63000000D02*
X102250000Y-63000000D01*
X104250000Y-63000000D02*
X109750000Y-63000000D01*
X111750000Y-63000000D02*
X117250000Y-63000000D01*
X119250000Y-63000000D02*
X124750000Y-63000000D01*
X126750000Y-63000000D02*
X132250000Y-63000000D01*
X134250000Y-63000000D02*
X139750000Y-63000000D01*
X141750000Y-63000000D02*
X147250000Y-63000000D01*
X149250000Y-63000000D02*
X154750000Y-63000000D01*
X156750000Y-63000000D02*
X158250000Y-63000000D01*
X158250000Y-63000000D02*
X158250000Y-68500000D01*
X158250000Y-70500000D02*
X158250000Y-76000000D01*
X158250000Y-78000000D02*
X158250000Y-81000000D01*
X158250000Y-81000000D02*
X152750000Y-81000000D01*
X150750000Y-81000000D02*
X145250000Y-81000000D01*
X143250000Y-81000000D02*
X137750000Y-81000000D01*
X135750000Y-81000000D02*
X130250000Y-81000000D01*
X128250000Y-81000000D02*
X122750000Y-81000000D01*
X120750000Y-81000000D02*
X115250000Y-81000000D01*
X113250000Y-81000000D02*
X107750000Y-81000000D01*
X105750000Y-81000000D02*
X100250000Y-81000000D01*
X98250000Y-81000000D02*
X92750000Y-81000000D01*
X90750000Y-81000000D02*
X85250000Y-81000000D01*
X83250000Y-81000000D02*
X77750000Y-81000000D01*
X75750000Y-81000000D02*
X70250000Y-81000000D01*
X68250000Y-81000000D02*
X62750000Y-81000000D01*
X60750000Y-81000000D02*
X55250000Y-81000000D01*
X53250000Y-81000000D02*
X47750000Y-81000000D01*
X45750000Y-81000000D02*
X44250000Y-81000000D01*
X44250000Y-81000000D02*
X44250000Y-75500000D01*
X44250000Y-73500000D02*
X44250000Y-68000000D01*
X44250000Y-66000000D02*
X44250000Y-63000000D01*
X210100000Y-81700000D02*
X205100000Y-81700000D01*
X205100000Y-100700000D01*
X182289528Y-100709998D01*
X182289528Y-62900000D01*
X210100000Y-62900000D01*
X210100000Y-81700000D01*
D11*
X44250000Y-84500000D02*
X162250000Y-84500000D01*
X162250000Y-84500000D02*
X162250000Y-102500000D01*
X162250000Y-102500000D02*
X44250000Y-102500000D01*
X44250000Y-102500000D02*
X44250000Y-84500000D01*
X44250000Y-63000000D02*
X176250000Y-63000000D01*
X176250000Y-63000000D02*
X176250000Y-81000000D01*
X176250000Y-81000000D02*
X44250000Y-81000000D01*
X44250000Y-81000000D02*
X44250000Y-63000000D01*
D10*
X171285714Y-69336904D02*
X167952380Y-69336904D01*
X167952380Y-69336904D02*
X170095238Y-74336904D01*
X166047618Y-69336904D02*
X166047618Y-73384523D01*
X166047618Y-73384523D02*
X165809523Y-73860714D01*
X165809523Y-73860714D02*
X165571428Y-74098809D01*
X165571428Y-74098809D02*
X165095237Y-74336904D01*
X165095237Y-74336904D02*
X164142856Y-74336904D01*
X164142856Y-74336904D02*
X163666666Y-74098809D01*
X163666666Y-74098809D02*
X163428571Y-73860714D01*
X163428571Y-73860714D02*
X163190475Y-73384523D01*
X163190475Y-73384523D02*
X163190475Y-69336904D01*
D12*
X200928571Y-90472142D02*
X200928571Y-87472142D01*
X200642857Y-89329285D02*
X199785714Y-90472142D01*
X199785714Y-88472142D02*
X200928571Y-89615000D01*
X197357143Y-90329285D02*
X197642857Y-90472142D01*
X197642857Y-90472142D02*
X198214286Y-90472142D01*
X198214286Y-90472142D02*
X198500000Y-90329285D01*
X198500000Y-90329285D02*
X198642857Y-90043571D01*
X198642857Y-90043571D02*
X198642857Y-88900714D01*
X198642857Y-88900714D02*
X198500000Y-88615000D01*
X198500000Y-88615000D02*
X198214286Y-88472142D01*
X198214286Y-88472142D02*
X197642857Y-88472142D01*
X197642857Y-88472142D02*
X197357143Y-88615000D01*
X197357143Y-88615000D02*
X197214286Y-88900714D01*
X197214286Y-88900714D02*
X197214286Y-89186428D01*
X197214286Y-89186428D02*
X198642857Y-89472142D01*
X196214285Y-88472142D02*
X195499999Y-90472142D01*
X194785714Y-88472142D02*
X195499999Y-90472142D01*
X195499999Y-90472142D02*
X195785714Y-91186428D01*
X195785714Y-91186428D02*
X195928571Y-91329285D01*
X195928571Y-91329285D02*
X196214285Y-91472142D01*
X192357143Y-90329285D02*
X192642857Y-90472142D01*
X192642857Y-90472142D02*
X193214285Y-90472142D01*
X193214285Y-90472142D02*
X193500000Y-90329285D01*
X193500000Y-90329285D02*
X193642857Y-90186428D01*
X193642857Y-90186428D02*
X193785714Y-89900714D01*
X193785714Y-89900714D02*
X193785714Y-89043571D01*
X193785714Y-89043571D02*
X193642857Y-88757857D01*
X193642857Y-88757857D02*
X193500000Y-88615000D01*
X193500000Y-88615000D02*
X193214285Y-88472142D01*
X193214285Y-88472142D02*
X192642857Y-88472142D01*
X192642857Y-88472142D02*
X192357143Y-88615000D01*
X189785714Y-90472142D02*
X189785714Y-88900714D01*
X189785714Y-88900714D02*
X189928571Y-88615000D01*
X189928571Y-88615000D02*
X190214285Y-88472142D01*
X190214285Y-88472142D02*
X190785714Y-88472142D01*
X190785714Y-88472142D02*
X191071428Y-88615000D01*
X189785714Y-90329285D02*
X190071428Y-90472142D01*
X190071428Y-90472142D02*
X190785714Y-90472142D01*
X190785714Y-90472142D02*
X191071428Y-90329285D01*
X191071428Y-90329285D02*
X191214285Y-90043571D01*
X191214285Y-90043571D02*
X191214285Y-89757857D01*
X191214285Y-89757857D02*
X191071428Y-89472142D01*
X191071428Y-89472142D02*
X190785714Y-89329285D01*
X190785714Y-89329285D02*
X190071428Y-89329285D01*
X190071428Y-89329285D02*
X189785714Y-89186428D01*
X188357142Y-88472142D02*
X188357142Y-91472142D01*
X188357142Y-88615000D02*
X188071428Y-88472142D01*
X188071428Y-88472142D02*
X187499999Y-88472142D01*
X187499999Y-88472142D02*
X187214285Y-88615000D01*
X187214285Y-88615000D02*
X187071428Y-88757857D01*
X187071428Y-88757857D02*
X186928570Y-89043571D01*
X186928570Y-89043571D02*
X186928570Y-89900714D01*
X186928570Y-89900714D02*
X187071428Y-90186428D01*
X187071428Y-90186428D02*
X187214285Y-90329285D01*
X187214285Y-90329285D02*
X187499999Y-90472142D01*
X187499999Y-90472142D02*
X188071428Y-90472142D01*
X188071428Y-90472142D02*
X188357142Y-90329285D01*
X198571429Y-95332142D02*
X198571429Y-93332142D01*
X198571429Y-93903571D02*
X198428572Y-93617857D01*
X198428572Y-93617857D02*
X198285715Y-93475000D01*
X198285715Y-93475000D02*
X198000000Y-93332142D01*
X198000000Y-93332142D02*
X197714286Y-93332142D01*
X195428572Y-93332142D02*
X195428572Y-95332142D01*
X196714286Y-93332142D02*
X196714286Y-94903571D01*
X196714286Y-94903571D02*
X196571429Y-95189285D01*
X196571429Y-95189285D02*
X196285714Y-95332142D01*
X196285714Y-95332142D02*
X195857143Y-95332142D01*
X195857143Y-95332142D02*
X195571429Y-95189285D01*
X195571429Y-95189285D02*
X195428572Y-95046428D01*
X193571428Y-95332142D02*
X193857143Y-95189285D01*
X193857143Y-95189285D02*
X194000000Y-94903571D01*
X194000000Y-94903571D02*
X194000000Y-92332142D01*
X191285714Y-95189285D02*
X191571428Y-95332142D01*
X191571428Y-95332142D02*
X192142857Y-95332142D01*
X192142857Y-95332142D02*
X192428571Y-95189285D01*
X192428571Y-95189285D02*
X192571428Y-94903571D01*
X192571428Y-94903571D02*
X192571428Y-93760714D01*
X192571428Y-93760714D02*
X192428571Y-93475000D01*
X192428571Y-93475000D02*
X192142857Y-93332142D01*
X192142857Y-93332142D02*
X191571428Y-93332142D01*
X191571428Y-93332142D02*
X191285714Y-93475000D01*
X191285714Y-93475000D02*
X191142857Y-93760714D01*
X191142857Y-93760714D02*
X191142857Y-94046428D01*
X191142857Y-94046428D02*
X192571428Y-94332142D01*
X189857142Y-95332142D02*
X189857142Y-93332142D01*
X189857142Y-93903571D02*
X189714285Y-93617857D01*
X189714285Y-93617857D02*
X189571428Y-93475000D01*
X189571428Y-93475000D02*
X189285713Y-93332142D01*
X189285713Y-93332142D02*
X188999999Y-93332142D01*
D10*
X103666666Y-69336904D02*
X104619047Y-69336904D01*
X104619047Y-69336904D02*
X105095238Y-69575000D01*
X105095238Y-69575000D02*
X105333333Y-69813095D01*
X105333333Y-69813095D02*
X105809523Y-70527380D01*
X105809523Y-70527380D02*
X106047619Y-71479761D01*
X106047619Y-71479761D02*
X106047619Y-73384523D01*
X106047619Y-73384523D02*
X105809523Y-73860714D01*
X105809523Y-73860714D02*
X105571428Y-74098809D01*
X105571428Y-74098809D02*
X105095238Y-74336904D01*
X105095238Y-74336904D02*
X104142857Y-74336904D01*
X104142857Y-74336904D02*
X103666666Y-74098809D01*
X103666666Y-74098809D02*
X103428571Y-73860714D01*
X103428571Y-73860714D02*
X103190476Y-73384523D01*
X103190476Y-73384523D02*
X103190476Y-72194047D01*
X103190476Y-72194047D02*
X103428571Y-71717857D01*
X103428571Y-71717857D02*
X103666666Y-71479761D01*
X103666666Y-71479761D02*
X104142857Y-71241666D01*
X104142857Y-71241666D02*
X105095238Y-71241666D01*
X105095238Y-71241666D02*
X105571428Y-71479761D01*
X105571428Y-71479761D02*
X105809523Y-71717857D01*
X105809523Y-71717857D02*
X106047619Y-72194047D01*
X101047618Y-69336904D02*
X101047618Y-73384523D01*
X101047618Y-73384523D02*
X100809523Y-73860714D01*
X100809523Y-73860714D02*
X100571428Y-74098809D01*
X100571428Y-74098809D02*
X100095237Y-74336904D01*
X100095237Y-74336904D02*
X99142856Y-74336904D01*
X99142856Y-74336904D02*
X98666666Y-74098809D01*
X98666666Y-74098809D02*
X98428571Y-73860714D01*
X98428571Y-73860714D02*
X98190475Y-73384523D01*
X98190475Y-73384523D02*
X98190475Y-69336904D01*
D12*
X208828571Y-68242142D02*
X208828571Y-65242142D01*
X208828571Y-65242142D02*
X208114285Y-65242142D01*
X208114285Y-65242142D02*
X207685714Y-65385000D01*
X207685714Y-65385000D02*
X207399999Y-65670714D01*
X207399999Y-65670714D02*
X207257142Y-65956428D01*
X207257142Y-65956428D02*
X207114285Y-66527857D01*
X207114285Y-66527857D02*
X207114285Y-66956428D01*
X207114285Y-66956428D02*
X207257142Y-67527857D01*
X207257142Y-67527857D02*
X207399999Y-67813571D01*
X207399999Y-67813571D02*
X207685714Y-68099285D01*
X207685714Y-68099285D02*
X208114285Y-68242142D01*
X208114285Y-68242142D02*
X208828571Y-68242142D01*
X204685714Y-68099285D02*
X204971428Y-68242142D01*
X204971428Y-68242142D02*
X205542857Y-68242142D01*
X205542857Y-68242142D02*
X205828571Y-68099285D01*
X205828571Y-68099285D02*
X205971428Y-67813571D01*
X205971428Y-67813571D02*
X205971428Y-66670714D01*
X205971428Y-66670714D02*
X205828571Y-66385000D01*
X205828571Y-66385000D02*
X205542857Y-66242142D01*
X205542857Y-66242142D02*
X204971428Y-66242142D01*
X204971428Y-66242142D02*
X204685714Y-66385000D01*
X204685714Y-66385000D02*
X204542857Y-66670714D01*
X204542857Y-66670714D02*
X204542857Y-66956428D01*
X204542857Y-66956428D02*
X205971428Y-67242142D01*
X203399999Y-68099285D02*
X203114285Y-68242142D01*
X203114285Y-68242142D02*
X202542856Y-68242142D01*
X202542856Y-68242142D02*
X202257142Y-68099285D01*
X202257142Y-68099285D02*
X202114285Y-67813571D01*
X202114285Y-67813571D02*
X202114285Y-67670714D01*
X202114285Y-67670714D02*
X202257142Y-67385000D01*
X202257142Y-67385000D02*
X202542856Y-67242142D01*
X202542856Y-67242142D02*
X202971428Y-67242142D01*
X202971428Y-67242142D02*
X203257142Y-67099285D01*
X203257142Y-67099285D02*
X203399999Y-66813571D01*
X203399999Y-66813571D02*
X203399999Y-66670714D01*
X203399999Y-66670714D02*
X203257142Y-66385000D01*
X203257142Y-66385000D02*
X202971428Y-66242142D01*
X202971428Y-66242142D02*
X202542856Y-66242142D01*
X202542856Y-66242142D02*
X202257142Y-66385000D01*
X200828571Y-68242142D02*
X200828571Y-66242142D01*
X200828571Y-65242142D02*
X200971428Y-65385000D01*
X200971428Y-65385000D02*
X200828571Y-65527857D01*
X200828571Y-65527857D02*
X200685714Y-65385000D01*
X200685714Y-65385000D02*
X200828571Y-65242142D01*
X200828571Y-65242142D02*
X200828571Y-65527857D01*
X198114286Y-66242142D02*
X198114286Y-68670714D01*
X198114286Y-68670714D02*
X198257143Y-68956428D01*
X198257143Y-68956428D02*
X198400000Y-69099285D01*
X198400000Y-69099285D02*
X198685714Y-69242142D01*
X198685714Y-69242142D02*
X199114286Y-69242142D01*
X199114286Y-69242142D02*
X199400000Y-69099285D01*
X198114286Y-68099285D02*
X198400000Y-68242142D01*
X198400000Y-68242142D02*
X198971428Y-68242142D01*
X198971428Y-68242142D02*
X199257143Y-68099285D01*
X199257143Y-68099285D02*
X199400000Y-67956428D01*
X199400000Y-67956428D02*
X199542857Y-67670714D01*
X199542857Y-67670714D02*
X199542857Y-66813571D01*
X199542857Y-66813571D02*
X199400000Y-66527857D01*
X199400000Y-66527857D02*
X199257143Y-66385000D01*
X199257143Y-66385000D02*
X198971428Y-66242142D01*
X198971428Y-66242142D02*
X198400000Y-66242142D01*
X198400000Y-66242142D02*
X198114286Y-66385000D01*
X196685714Y-66242142D02*
X196685714Y-68242142D01*
X196685714Y-66527857D02*
X196542857Y-66385000D01*
X196542857Y-66385000D02*
X196257142Y-66242142D01*
X196257142Y-66242142D02*
X195828571Y-66242142D01*
X195828571Y-66242142D02*
X195542857Y-66385000D01*
X195542857Y-66385000D02*
X195400000Y-66670714D01*
X195400000Y-66670714D02*
X195400000Y-68242142D01*
X192828571Y-68099285D02*
X193114285Y-68242142D01*
X193114285Y-68242142D02*
X193685714Y-68242142D01*
X193685714Y-68242142D02*
X193971428Y-68099285D01*
X193971428Y-68099285D02*
X194114285Y-67813571D01*
X194114285Y-67813571D02*
X194114285Y-66670714D01*
X194114285Y-66670714D02*
X193971428Y-66385000D01*
X193971428Y-66385000D02*
X193685714Y-66242142D01*
X193685714Y-66242142D02*
X193114285Y-66242142D01*
X193114285Y-66242142D02*
X192828571Y-66385000D01*
X192828571Y-66385000D02*
X192685714Y-66670714D01*
X192685714Y-66670714D02*
X192685714Y-66956428D01*
X192685714Y-66956428D02*
X194114285Y-67242142D01*
X190114285Y-68242142D02*
X190114285Y-65242142D01*
X190114285Y-68099285D02*
X190399999Y-68242142D01*
X190399999Y-68242142D02*
X190971427Y-68242142D01*
X190971427Y-68242142D02*
X191257142Y-68099285D01*
X191257142Y-68099285D02*
X191399999Y-67956428D01*
X191399999Y-67956428D02*
X191542856Y-67670714D01*
X191542856Y-67670714D02*
X191542856Y-66813571D01*
X191542856Y-66813571D02*
X191399999Y-66527857D01*
X191399999Y-66527857D02*
X191257142Y-66385000D01*
X191257142Y-66385000D02*
X190971427Y-66242142D01*
X190971427Y-66242142D02*
X190399999Y-66242142D01*
X190399999Y-66242142D02*
X190114285Y-66385000D01*
X186885713Y-68242142D02*
X186885713Y-66242142D01*
X186885713Y-65242142D02*
X187028570Y-65385000D01*
X187028570Y-65385000D02*
X186885713Y-65527857D01*
X186885713Y-65527857D02*
X186742856Y-65385000D01*
X186742856Y-65385000D02*
X186885713Y-65242142D01*
X186885713Y-65242142D02*
X186885713Y-65527857D01*
X185457142Y-66242142D02*
X185457142Y-68242142D01*
X185457142Y-66527857D02*
X185314285Y-66385000D01*
X185314285Y-66385000D02*
X185028570Y-66242142D01*
X185028570Y-66242142D02*
X184599999Y-66242142D01*
X184599999Y-66242142D02*
X184314285Y-66385000D01*
X184314285Y-66385000D02*
X184171428Y-66670714D01*
X184171428Y-66670714D02*
X184171428Y-68242142D01*
X206828571Y-71530714D02*
X206399999Y-71673571D01*
X206399999Y-71673571D02*
X206257142Y-71816428D01*
X206257142Y-71816428D02*
X206114285Y-72102142D01*
X206114285Y-72102142D02*
X206114285Y-72530714D01*
X206114285Y-72530714D02*
X206257142Y-72816428D01*
X206257142Y-72816428D02*
X206399999Y-72959285D01*
X206399999Y-72959285D02*
X206685714Y-73102142D01*
X206685714Y-73102142D02*
X207828571Y-73102142D01*
X207828571Y-73102142D02*
X207828571Y-70102142D01*
X207828571Y-70102142D02*
X206828571Y-70102142D01*
X206828571Y-70102142D02*
X206542857Y-70245000D01*
X206542857Y-70245000D02*
X206399999Y-70387857D01*
X206399999Y-70387857D02*
X206257142Y-70673571D01*
X206257142Y-70673571D02*
X206257142Y-70959285D01*
X206257142Y-70959285D02*
X206399999Y-71245000D01*
X206399999Y-71245000D02*
X206542857Y-71387857D01*
X206542857Y-71387857D02*
X206828571Y-71530714D01*
X206828571Y-71530714D02*
X207828571Y-71530714D01*
X204828571Y-73102142D02*
X204828571Y-71102142D01*
X204828571Y-71673571D02*
X204685714Y-71387857D01*
X204685714Y-71387857D02*
X204542857Y-71245000D01*
X204542857Y-71245000D02*
X204257142Y-71102142D01*
X204257142Y-71102142D02*
X203971428Y-71102142D01*
X202971428Y-73102142D02*
X202971428Y-71102142D01*
X202971428Y-70102142D02*
X203114285Y-70245000D01*
X203114285Y-70245000D02*
X202971428Y-70387857D01*
X202971428Y-70387857D02*
X202828571Y-70245000D01*
X202828571Y-70245000D02*
X202971428Y-70102142D01*
X202971428Y-70102142D02*
X202971428Y-70387857D01*
X201685714Y-72959285D02*
X201400000Y-73102142D01*
X201400000Y-73102142D02*
X200828571Y-73102142D01*
X200828571Y-73102142D02*
X200542857Y-72959285D01*
X200542857Y-72959285D02*
X200400000Y-72673571D01*
X200400000Y-72673571D02*
X200400000Y-72530714D01*
X200400000Y-72530714D02*
X200542857Y-72245000D01*
X200542857Y-72245000D02*
X200828571Y-72102142D01*
X200828571Y-72102142D02*
X201257143Y-72102142D01*
X201257143Y-72102142D02*
X201542857Y-71959285D01*
X201542857Y-71959285D02*
X201685714Y-71673571D01*
X201685714Y-71673571D02*
X201685714Y-71530714D01*
X201685714Y-71530714D02*
X201542857Y-71245000D01*
X201542857Y-71245000D02*
X201257143Y-71102142D01*
X201257143Y-71102142D02*
X200828571Y-71102142D01*
X200828571Y-71102142D02*
X200542857Y-71245000D01*
X199542857Y-71102142D02*
X198400000Y-71102142D01*
X199114286Y-70102142D02*
X199114286Y-72673571D01*
X199114286Y-72673571D02*
X198971429Y-72959285D01*
X198971429Y-72959285D02*
X198685714Y-73102142D01*
X198685714Y-73102142D02*
X198400000Y-73102142D01*
X196971428Y-73102142D02*
X197257143Y-72959285D01*
X197257143Y-72959285D02*
X197400000Y-72816428D01*
X197400000Y-72816428D02*
X197542857Y-72530714D01*
X197542857Y-72530714D02*
X197542857Y-71673571D01*
X197542857Y-71673571D02*
X197400000Y-71387857D01*
X197400000Y-71387857D02*
X197257143Y-71245000D01*
X197257143Y-71245000D02*
X196971428Y-71102142D01*
X196971428Y-71102142D02*
X196542857Y-71102142D01*
X196542857Y-71102142D02*
X196257143Y-71245000D01*
X196257143Y-71245000D02*
X196114286Y-71387857D01*
X196114286Y-71387857D02*
X195971428Y-71673571D01*
X195971428Y-71673571D02*
X195971428Y-72530714D01*
X195971428Y-72530714D02*
X196114286Y-72816428D01*
X196114286Y-72816428D02*
X196257143Y-72959285D01*
X196257143Y-72959285D02*
X196542857Y-73102142D01*
X196542857Y-73102142D02*
X196971428Y-73102142D01*
X194257142Y-73102142D02*
X194542857Y-72959285D01*
X194542857Y-72959285D02*
X194685714Y-72673571D01*
X194685714Y-72673571D02*
X194685714Y-70102142D01*
X192971428Y-72959285D02*
X192971428Y-73102142D01*
X192971428Y-73102142D02*
X193114285Y-73387857D01*
X193114285Y-73387857D02*
X193257142Y-73530714D01*
X189885714Y-70102142D02*
X189885714Y-72530714D01*
X189885714Y-72530714D02*
X189742857Y-72816428D01*
X189742857Y-72816428D02*
X189600000Y-72959285D01*
X189600000Y-72959285D02*
X189314285Y-73102142D01*
X189314285Y-73102142D02*
X188742857Y-73102142D01*
X188742857Y-73102142D02*
X188457142Y-72959285D01*
X188457142Y-72959285D02*
X188314285Y-72816428D01*
X188314285Y-72816428D02*
X188171428Y-72530714D01*
X188171428Y-72530714D02*
X188171428Y-70102142D01*
X186742857Y-73102142D02*
X186742857Y-70102142D01*
X185028571Y-73102142D02*
X186314285Y-71387857D01*
X185028571Y-70102142D02*
X186742857Y-71816428D01*
X209042857Y-77962142D02*
X209042857Y-74962142D01*
X209042857Y-76105000D02*
X208757143Y-75962142D01*
X208757143Y-75962142D02*
X208185714Y-75962142D01*
X208185714Y-75962142D02*
X207900000Y-76105000D01*
X207900000Y-76105000D02*
X207757143Y-76247857D01*
X207757143Y-76247857D02*
X207614285Y-76533571D01*
X207614285Y-76533571D02*
X207614285Y-77390714D01*
X207614285Y-77390714D02*
X207757143Y-77676428D01*
X207757143Y-77676428D02*
X207900000Y-77819285D01*
X207900000Y-77819285D02*
X208185714Y-77962142D01*
X208185714Y-77962142D02*
X208757143Y-77962142D01*
X208757143Y-77962142D02*
X209042857Y-77819285D01*
X206614285Y-75962142D02*
X205899999Y-77962142D01*
X205185714Y-75962142D02*
X205899999Y-77962142D01*
X205899999Y-77962142D02*
X206185714Y-78676428D01*
X206185714Y-78676428D02*
X206328571Y-78819285D01*
X206328571Y-78819285D02*
X206614285Y-78962142D01*
X202242857Y-77962142D02*
X202242857Y-75962142D01*
X202242857Y-76533571D02*
X202100000Y-76247857D01*
X202100000Y-76247857D02*
X201957143Y-76105000D01*
X201957143Y-76105000D02*
X201671428Y-75962142D01*
X201671428Y-75962142D02*
X201385714Y-75962142D01*
X200385714Y-77962142D02*
X200385714Y-75962142D01*
X200385714Y-74962142D02*
X200528571Y-75105000D01*
X200528571Y-75105000D02*
X200385714Y-75247857D01*
X200385714Y-75247857D02*
X200242857Y-75105000D01*
X200242857Y-75105000D02*
X200385714Y-74962142D01*
X200385714Y-74962142D02*
X200385714Y-75247857D01*
X197671429Y-77819285D02*
X197957143Y-77962142D01*
X197957143Y-77962142D02*
X198528571Y-77962142D01*
X198528571Y-77962142D02*
X198814286Y-77819285D01*
X198814286Y-77819285D02*
X198957143Y-77676428D01*
X198957143Y-77676428D02*
X199100000Y-77390714D01*
X199100000Y-77390714D02*
X199100000Y-76533571D01*
X199100000Y-76533571D02*
X198957143Y-76247857D01*
X198957143Y-76247857D02*
X198814286Y-76105000D01*
X198814286Y-76105000D02*
X198528571Y-75962142D01*
X198528571Y-75962142D02*
X197957143Y-75962142D01*
X197957143Y-75962142D02*
X197671429Y-76105000D01*
X196385714Y-77962142D02*
X196385714Y-74962142D01*
X195100000Y-77962142D02*
X195100000Y-76390714D01*
X195100000Y-76390714D02*
X195242857Y-76105000D01*
X195242857Y-76105000D02*
X195528571Y-75962142D01*
X195528571Y-75962142D02*
X195957142Y-75962142D01*
X195957142Y-75962142D02*
X196242857Y-76105000D01*
X196242857Y-76105000D02*
X196385714Y-76247857D01*
X192385714Y-77962142D02*
X192385714Y-74962142D01*
X192385714Y-77819285D02*
X192671428Y-77962142D01*
X192671428Y-77962142D02*
X193242856Y-77962142D01*
X193242856Y-77962142D02*
X193528571Y-77819285D01*
X193528571Y-77819285D02*
X193671428Y-77676428D01*
X193671428Y-77676428D02*
X193814285Y-77390714D01*
X193814285Y-77390714D02*
X193814285Y-76533571D01*
X193814285Y-76533571D02*
X193671428Y-76247857D01*
X193671428Y-76247857D02*
X193528571Y-76105000D01*
X193528571Y-76105000D02*
X193242856Y-75962142D01*
X193242856Y-75962142D02*
X192671428Y-75962142D01*
X192671428Y-75962142D02*
X192385714Y-76105000D01*
X189671428Y-77962142D02*
X189671428Y-76390714D01*
X189671428Y-76390714D02*
X189814285Y-76105000D01*
X189814285Y-76105000D02*
X190099999Y-75962142D01*
X190099999Y-75962142D02*
X190671428Y-75962142D01*
X190671428Y-75962142D02*
X190957142Y-76105000D01*
X189671428Y-77819285D02*
X189957142Y-77962142D01*
X189957142Y-77962142D02*
X190671428Y-77962142D01*
X190671428Y-77962142D02*
X190957142Y-77819285D01*
X190957142Y-77819285D02*
X191099999Y-77533571D01*
X191099999Y-77533571D02*
X191099999Y-77247857D01*
X191099999Y-77247857D02*
X190957142Y-76962142D01*
X190957142Y-76962142D02*
X190671428Y-76819285D01*
X190671428Y-76819285D02*
X189957142Y-76819285D01*
X189957142Y-76819285D02*
X189671428Y-76676428D01*
X188528570Y-75962142D02*
X187957142Y-77962142D01*
X187957142Y-77962142D02*
X187385713Y-76533571D01*
X187385713Y-76533571D02*
X186814284Y-77962142D01*
X186814284Y-77962142D02*
X186242856Y-75962142D01*
X183957142Y-77819285D02*
X184242856Y-77962142D01*
X184242856Y-77962142D02*
X184814285Y-77962142D01*
X184814285Y-77962142D02*
X185099999Y-77819285D01*
X185099999Y-77819285D02*
X185242856Y-77533571D01*
X185242856Y-77533571D02*
X185242856Y-76390714D01*
X185242856Y-76390714D02*
X185099999Y-76105000D01*
X185099999Y-76105000D02*
X184814285Y-75962142D01*
X184814285Y-75962142D02*
X184242856Y-75962142D01*
X184242856Y-75962142D02*
X183957142Y-76105000D01*
X183957142Y-76105000D02*
X183814285Y-76390714D01*
X183814285Y-76390714D02*
X183814285Y-76676428D01*
X183814285Y-76676428D02*
X185242856Y-76962142D01*
D10*
X95583333Y-95663095D02*
X94630952Y-95663095D01*
X94630952Y-95663095D02*
X94154761Y-95425000D01*
X94154761Y-95425000D02*
X93916666Y-95186904D01*
X93916666Y-95186904D02*
X93440476Y-94472619D01*
X93440476Y-94472619D02*
X93202380Y-93520238D01*
X93202380Y-93520238D02*
X93202380Y-91615476D01*
X93202380Y-91615476D02*
X93440476Y-91139285D01*
X93440476Y-91139285D02*
X93678571Y-90901190D01*
X93678571Y-90901190D02*
X94154761Y-90663095D01*
X94154761Y-90663095D02*
X95107142Y-90663095D01*
X95107142Y-90663095D02*
X95583333Y-90901190D01*
X95583333Y-90901190D02*
X95821428Y-91139285D01*
X95821428Y-91139285D02*
X96059523Y-91615476D01*
X96059523Y-91615476D02*
X96059523Y-92805952D01*
X96059523Y-92805952D02*
X95821428Y-93282142D01*
X95821428Y-93282142D02*
X95583333Y-93520238D01*
X95583333Y-93520238D02*
X95107142Y-93758333D01*
X95107142Y-93758333D02*
X94154761Y-93758333D01*
X94154761Y-93758333D02*
X93678571Y-93520238D01*
X93678571Y-93520238D02*
X93440476Y-93282142D01*
X93440476Y-93282142D02*
X93202380Y-92805952D01*
X98202381Y-91139285D02*
X98440476Y-90901190D01*
X98440476Y-90901190D02*
X98202381Y-90663095D01*
X98202381Y-90663095D02*
X97964285Y-90901190D01*
X97964285Y-90901190D02*
X98202381Y-91139285D01*
X98202381Y-91139285D02*
X98202381Y-90663095D01*
X100345237Y-95186904D02*
X100583333Y-95425000D01*
X100583333Y-95425000D02*
X101059523Y-95663095D01*
X101059523Y-95663095D02*
X102249999Y-95663095D01*
X102249999Y-95663095D02*
X102726190Y-95425000D01*
X102726190Y-95425000D02*
X102964285Y-95186904D01*
X102964285Y-95186904D02*
X103202380Y-94710714D01*
X103202380Y-94710714D02*
X103202380Y-94234523D01*
X103202380Y-94234523D02*
X102964285Y-93520238D01*
X102964285Y-93520238D02*
X100107142Y-90663095D01*
X100107142Y-90663095D02*
X103202380Y-90663095D01*
X107726190Y-95663095D02*
X105345238Y-95663095D01*
X105345238Y-95663095D02*
X105107142Y-93282142D01*
X105107142Y-93282142D02*
X105345238Y-93520238D01*
X105345238Y-93520238D02*
X105821428Y-93758333D01*
X105821428Y-93758333D02*
X107011904Y-93758333D01*
X107011904Y-93758333D02*
X107488095Y-93520238D01*
X107488095Y-93520238D02*
X107726190Y-93282142D01*
X107726190Y-93282142D02*
X107964285Y-92805952D01*
X107964285Y-92805952D02*
X107964285Y-91615476D01*
X107964285Y-91615476D02*
X107726190Y-91139285D01*
X107726190Y-91139285D02*
X107488095Y-90901190D01*
X107488095Y-90901190D02*
X107011904Y-90663095D01*
X107011904Y-90663095D02*
X105821428Y-90663095D01*
X105821428Y-90663095D02*
X105345238Y-90901190D01*
X105345238Y-90901190D02*
X105107142Y-91139285D01*
X110107143Y-95663095D02*
X110107143Y-91615476D01*
X110107143Y-91615476D02*
X110345238Y-91139285D01*
X110345238Y-91139285D02*
X110583333Y-90901190D01*
X110583333Y-90901190D02*
X111059524Y-90663095D01*
X111059524Y-90663095D02*
X112011905Y-90663095D01*
X112011905Y-90663095D02*
X112488095Y-90901190D01*
X112488095Y-90901190D02*
X112726190Y-91139285D01*
X112726190Y-91139285D02*
X112964286Y-91615476D01*
X112964286Y-91615476D02*
X112964286Y-95663095D01*
D13*
X221158000Y-85980000D02*
X226258000Y-85980000D01*
X225058000Y-90180000D02*
X230158000Y-90180000D01*
X221158000Y-85980000D02*
G75*
G03*
X219158000Y-87980000I-1J-1999999D01*
G01*
X225058000Y-90180000D02*
G75*
G03*
X223058000Y-92180000I-1J-1999999D01*
G01*
%LPC*%
D14*
X220178000Y-92880000D03*
D15*
X221448000Y-90340000D03*
D16*
X225258000Y-92880000D03*
D15*
X227798000Y-87800000D03*
D14*
X230338000Y-92880000D03*
D17*
X218173000Y-90340000D03*
X231100000Y-87800000D03*
D18*
X240000000Y-98250000D03*
D19*
X245000000Y-93100000D03*
D20*
X245000000Y-87200000D03*
X250000000Y-89300000D03*
D21*
X239500000Y-71600000D03*
D22*
X245000000Y-71600000D03*
D21*
X250500000Y-71600000D03*
D20*
X245000000Y-65700000D03*
X250000000Y-67800000D03*
D14*
X220180000Y-71680000D03*
D16*
X225260000Y-71680000D03*
D14*
X230340000Y-71680000D03*
D23*
X221450000Y-69140000D03*
X227800000Y-66600000D03*
M02*
