%TF.GenerationSoftware,KiCad,Pcbnew,7.0.0-da2b9df05c~171~ubuntu22.04.1*%
%TF.CreationDate,2023-03-08T14:53:33+00:00*%
%TF.ProjectId,keycap-ruler,6b657963-6170-42d7-9275-6c65722e6b69,rev?*%
%TF.SameCoordinates,Original*%
%TF.FileFunction,Drillmap*%
%TF.FilePolarity,Positive*%
%FSLAX45Y45*%
G04 Gerber Fmt 4.5, Leading zero omitted, Abs format (unit mm)*
G04 Created by KiCad (PCBNEW 7.0.0-da2b9df05c~171~ubuntu22.04.1) date 2023-03-08 14:53:33*
%MOMM*%
%LPD*%
G01*
G04 APERTURE LIST*
%ADD10C,0.150000*%
%ADD11C,0.200000*%
%ADD12C,0.120000*%
%ADD13C,0.160000*%
G04 APERTURE END LIST*
D10*
X25337283Y-6015647D02*
X25365188Y-6017569D01*
X25392687Y-6020734D01*
X25419746Y-6025111D01*
X25446330Y-6030668D01*
X25472404Y-6037374D01*
X25497935Y-6045199D01*
X25522888Y-6054110D01*
X25547228Y-6064076D01*
X25570920Y-6075067D01*
X25593930Y-6087050D01*
X25616224Y-6099995D01*
X25637767Y-6113870D01*
X25658525Y-6128645D01*
X25678462Y-6144287D01*
X25697545Y-6160766D01*
X25715739Y-6178050D01*
X25733010Y-6196108D01*
X25749322Y-6214908D01*
X25764641Y-6234420D01*
X25778934Y-6254613D01*
X25792165Y-6275454D01*
X25804299Y-6296913D01*
X25815303Y-6318958D01*
X25825141Y-6341558D01*
X25833780Y-6364682D01*
X25841185Y-6388299D01*
X25847320Y-6412377D01*
X25852152Y-6436885D01*
X25855647Y-6461791D01*
X25857769Y-6487065D01*
X25858484Y-6512676D01*
X25858484Y-9996407D01*
X25857769Y-10022017D01*
X25855647Y-10047292D01*
X25852152Y-10072198D01*
X25847320Y-10096706D01*
X25841185Y-10120784D01*
X25833780Y-10144401D01*
X25825141Y-10167525D01*
X25815303Y-10190125D01*
X25804299Y-10212170D01*
X25792165Y-10233629D01*
X25778934Y-10254470D01*
X25764641Y-10274662D01*
X25749322Y-10294174D01*
X25733010Y-10312975D01*
X25715739Y-10331033D01*
X25697545Y-10348317D01*
X25678462Y-10364796D01*
X25658525Y-10380438D01*
X25637767Y-10395212D01*
X25616224Y-10409088D01*
X25593930Y-10422033D01*
X25570920Y-10434016D01*
X25547228Y-10445007D01*
X25522888Y-10454973D01*
X25497935Y-10463884D01*
X25472404Y-10471708D01*
X25446330Y-10478415D01*
X25419746Y-10483972D01*
X25392687Y-10488349D01*
X25365188Y-10491513D01*
X25337283Y-10493435D01*
X25309007Y-10494083D01*
X4428878Y-10494083D01*
X4400602Y-10493435D01*
X4372697Y-10491513D01*
X4345198Y-10488349D01*
X4318139Y-10483972D01*
X4291555Y-10478415D01*
X4265480Y-10471708D01*
X4239949Y-10463884D01*
X4214997Y-10454973D01*
X4190657Y-10445007D01*
X4166964Y-10434016D01*
X4143954Y-10422033D01*
X4121660Y-10409088D01*
X4100117Y-10395212D01*
X4079359Y-10380438D01*
X4059422Y-10364796D01*
X4040339Y-10348317D01*
X4022145Y-10331033D01*
X4004875Y-10312975D01*
X3988562Y-10294174D01*
X3973243Y-10274662D01*
X3958950Y-10254470D01*
X3945720Y-10233629D01*
X3933585Y-10212170D01*
X3922581Y-10190125D01*
X3912743Y-10167525D01*
X3904104Y-10144401D01*
X3896700Y-10120784D01*
X3890564Y-10096706D01*
X3885732Y-10072198D01*
X3882238Y-10047292D01*
X3880116Y-10022017D01*
X3879401Y-9996407D01*
X3879401Y-6512676D01*
X3880116Y-6487065D01*
X3882238Y-6461791D01*
X3885732Y-6436885D01*
X3890564Y-6412377D01*
X3896700Y-6388299D01*
X3904104Y-6364682D01*
X3912743Y-6341558D01*
X3922581Y-6318958D01*
X3933585Y-6296913D01*
X3945720Y-6275454D01*
X3958950Y-6254613D01*
X3973243Y-6234420D01*
X3988562Y-6214908D01*
X4004875Y-6196108D01*
X4022145Y-6178050D01*
X4040339Y-6160766D01*
X4059422Y-6144287D01*
X4079359Y-6128645D01*
X4100117Y-6113870D01*
X4121660Y-6099995D01*
X4143954Y-6087050D01*
X4166964Y-6075067D01*
X4190657Y-6064076D01*
X4214997Y-6054110D01*
X4239949Y-6045199D01*
X4265480Y-6037374D01*
X4291555Y-6030668D01*
X4318139Y-6025111D01*
X4345198Y-6020734D01*
X4372697Y-6017569D01*
X4400602Y-6015647D01*
X4428878Y-6015000D01*
X25309007Y-6015000D01*
X25337283Y-6015647D01*
D11*
D12*
X24440000Y-6510000D02*
X24560000Y-6630000D01*
X24560000Y-6510000D02*
X24440000Y-6630000D01*
X24440000Y-8660000D02*
X24560000Y-8780000D01*
X24560000Y-8660000D02*
X24440000Y-8780000D01*
X24940000Y-6720000D02*
X25060000Y-6840000D01*
X25060000Y-6720000D02*
X24940000Y-6840000D01*
X24940000Y-8870000D02*
X25060000Y-8990000D01*
X25060000Y-8870000D02*
X24940000Y-8990000D01*
D10*
X22220000Y-6914000D02*
G75*
G03*
X22220000Y-6914000I-75000J0D01*
G01*
X22855000Y-6660000D02*
G75*
G03*
X22855000Y-6660000I-75000J0D01*
G01*
D13*
X24000000Y-9745000D02*
X24000000Y-9905000D01*
X23920000Y-9825000D02*
X24080000Y-9825000D01*
D11*
X4119520Y-10795059D02*
X4119520Y-10595059D01*
X4119520Y-10595059D02*
X4167139Y-10595059D01*
X4167139Y-10595059D02*
X4195710Y-10604583D01*
X4195710Y-10604583D02*
X4214758Y-10623630D01*
X4214758Y-10623630D02*
X4224282Y-10642678D01*
X4224282Y-10642678D02*
X4233806Y-10680773D01*
X4233806Y-10680773D02*
X4233806Y-10709345D01*
X4233806Y-10709345D02*
X4224282Y-10747440D01*
X4224282Y-10747440D02*
X4214758Y-10766488D01*
X4214758Y-10766488D02*
X4195710Y-10785535D01*
X4195710Y-10785535D02*
X4167139Y-10795059D01*
X4167139Y-10795059D02*
X4119520Y-10795059D01*
X4319520Y-10795059D02*
X4319520Y-10661726D01*
X4319520Y-10699821D02*
X4329044Y-10680773D01*
X4329044Y-10680773D02*
X4338568Y-10671249D01*
X4338568Y-10671249D02*
X4357615Y-10661726D01*
X4357615Y-10661726D02*
X4376663Y-10661726D01*
X4443329Y-10795059D02*
X4443329Y-10661726D01*
X4443329Y-10595059D02*
X4433806Y-10604583D01*
X4433806Y-10604583D02*
X4443329Y-10614107D01*
X4443329Y-10614107D02*
X4452853Y-10604583D01*
X4452853Y-10604583D02*
X4443329Y-10595059D01*
X4443329Y-10595059D02*
X4443329Y-10614107D01*
X4567139Y-10795059D02*
X4548091Y-10785535D01*
X4548091Y-10785535D02*
X4538568Y-10766488D01*
X4538568Y-10766488D02*
X4538568Y-10595059D01*
X4671901Y-10795059D02*
X4652853Y-10785535D01*
X4652853Y-10785535D02*
X4643329Y-10766488D01*
X4643329Y-10766488D02*
X4643329Y-10595059D01*
X4868091Y-10795059D02*
X4868091Y-10595059D01*
X4868091Y-10595059D02*
X4934758Y-10737916D01*
X4934758Y-10737916D02*
X5001425Y-10595059D01*
X5001425Y-10595059D02*
X5001425Y-10795059D01*
X5182377Y-10795059D02*
X5182377Y-10690297D01*
X5182377Y-10690297D02*
X5172853Y-10671249D01*
X5172853Y-10671249D02*
X5153806Y-10661726D01*
X5153806Y-10661726D02*
X5115710Y-10661726D01*
X5115710Y-10661726D02*
X5096663Y-10671249D01*
X5182377Y-10785535D02*
X5163329Y-10795059D01*
X5163329Y-10795059D02*
X5115710Y-10795059D01*
X5115710Y-10795059D02*
X5096663Y-10785535D01*
X5096663Y-10785535D02*
X5087139Y-10766488D01*
X5087139Y-10766488D02*
X5087139Y-10747440D01*
X5087139Y-10747440D02*
X5096663Y-10728392D01*
X5096663Y-10728392D02*
X5115710Y-10718869D01*
X5115710Y-10718869D02*
X5163329Y-10718869D01*
X5163329Y-10718869D02*
X5182377Y-10709345D01*
X5277615Y-10661726D02*
X5277615Y-10861726D01*
X5277615Y-10671249D02*
X5296663Y-10661726D01*
X5296663Y-10661726D02*
X5334758Y-10661726D01*
X5334758Y-10661726D02*
X5353806Y-10671249D01*
X5353806Y-10671249D02*
X5363329Y-10680773D01*
X5363329Y-10680773D02*
X5372853Y-10699821D01*
X5372853Y-10699821D02*
X5372853Y-10756964D01*
X5372853Y-10756964D02*
X5363329Y-10776011D01*
X5363329Y-10776011D02*
X5353806Y-10785535D01*
X5353806Y-10785535D02*
X5334758Y-10795059D01*
X5334758Y-10795059D02*
X5296663Y-10795059D01*
X5296663Y-10795059D02*
X5277615Y-10785535D01*
X5458568Y-10776011D02*
X5468091Y-10785535D01*
X5468091Y-10785535D02*
X5458568Y-10795059D01*
X5458568Y-10795059D02*
X5449044Y-10785535D01*
X5449044Y-10785535D02*
X5458568Y-10776011D01*
X5458568Y-10776011D02*
X5458568Y-10795059D01*
X5458568Y-10671249D02*
X5468091Y-10680773D01*
X5468091Y-10680773D02*
X5458568Y-10690297D01*
X5458568Y-10690297D02*
X5449044Y-10680773D01*
X5449044Y-10680773D02*
X5458568Y-10671249D01*
X5458568Y-10671249D02*
X5458568Y-10690297D01*
D12*
X3751901Y-11081583D02*
X3871901Y-11201583D01*
X3871901Y-11081583D02*
X3751901Y-11201583D01*
D11*
X4224282Y-11215059D02*
X4109996Y-11215059D01*
X4167139Y-11215059D02*
X4167139Y-11015059D01*
X4167139Y-11015059D02*
X4148091Y-11043630D01*
X4148091Y-11043630D02*
X4129044Y-11062678D01*
X4129044Y-11062678D02*
X4109996Y-11072202D01*
X4309996Y-11196011D02*
X4319520Y-11205535D01*
X4319520Y-11205535D02*
X4309996Y-11215059D01*
X4309996Y-11215059D02*
X4300472Y-11205535D01*
X4300472Y-11205535D02*
X4309996Y-11196011D01*
X4309996Y-11196011D02*
X4309996Y-11215059D01*
X4395710Y-11034107D02*
X4405234Y-11024583D01*
X4405234Y-11024583D02*
X4424282Y-11015059D01*
X4424282Y-11015059D02*
X4471901Y-11015059D01*
X4471901Y-11015059D02*
X4490949Y-11024583D01*
X4490949Y-11024583D02*
X4500472Y-11034107D01*
X4500472Y-11034107D02*
X4509996Y-11053154D01*
X4509996Y-11053154D02*
X4509996Y-11072202D01*
X4509996Y-11072202D02*
X4500472Y-11100773D01*
X4500472Y-11100773D02*
X4386187Y-11215059D01*
X4386187Y-11215059D02*
X4509996Y-11215059D01*
X4633806Y-11015059D02*
X4652853Y-11015059D01*
X4652853Y-11015059D02*
X4671901Y-11024583D01*
X4671901Y-11024583D02*
X4681425Y-11034107D01*
X4681425Y-11034107D02*
X4690949Y-11053154D01*
X4690949Y-11053154D02*
X4700472Y-11091249D01*
X4700472Y-11091249D02*
X4700472Y-11138869D01*
X4700472Y-11138869D02*
X4690949Y-11176964D01*
X4690949Y-11176964D02*
X4681425Y-11196011D01*
X4681425Y-11196011D02*
X4671901Y-11205535D01*
X4671901Y-11205535D02*
X4652853Y-11215059D01*
X4652853Y-11215059D02*
X4633806Y-11215059D01*
X4633806Y-11215059D02*
X4614758Y-11205535D01*
X4614758Y-11205535D02*
X4605234Y-11196011D01*
X4605234Y-11196011D02*
X4595710Y-11176964D01*
X4595710Y-11176964D02*
X4586187Y-11138869D01*
X4586187Y-11138869D02*
X4586187Y-11091249D01*
X4586187Y-11091249D02*
X4595710Y-11053154D01*
X4595710Y-11053154D02*
X4605234Y-11034107D01*
X4605234Y-11034107D02*
X4614758Y-11024583D01*
X4614758Y-11024583D02*
X4633806Y-11015059D01*
X4824282Y-11015059D02*
X4843330Y-11015059D01*
X4843330Y-11015059D02*
X4862377Y-11024583D01*
X4862377Y-11024583D02*
X4871901Y-11034107D01*
X4871901Y-11034107D02*
X4881425Y-11053154D01*
X4881425Y-11053154D02*
X4890949Y-11091249D01*
X4890949Y-11091249D02*
X4890949Y-11138869D01*
X4890949Y-11138869D02*
X4881425Y-11176964D01*
X4881425Y-11176964D02*
X4871901Y-11196011D01*
X4871901Y-11196011D02*
X4862377Y-11205535D01*
X4862377Y-11205535D02*
X4843330Y-11215059D01*
X4843330Y-11215059D02*
X4824282Y-11215059D01*
X4824282Y-11215059D02*
X4805234Y-11205535D01*
X4805234Y-11205535D02*
X4795710Y-11196011D01*
X4795710Y-11196011D02*
X4786187Y-11176964D01*
X4786187Y-11176964D02*
X4776663Y-11138869D01*
X4776663Y-11138869D02*
X4776663Y-11091249D01*
X4776663Y-11091249D02*
X4786187Y-11053154D01*
X4786187Y-11053154D02*
X4795710Y-11034107D01*
X4795710Y-11034107D02*
X4805234Y-11024583D01*
X4805234Y-11024583D02*
X4824282Y-11015059D01*
X4976663Y-11215059D02*
X4976663Y-11081726D01*
X4976663Y-11100773D02*
X4986187Y-11091249D01*
X4986187Y-11091249D02*
X5005234Y-11081726D01*
X5005234Y-11081726D02*
X5033806Y-11081726D01*
X5033806Y-11081726D02*
X5052853Y-11091249D01*
X5052853Y-11091249D02*
X5062377Y-11110297D01*
X5062377Y-11110297D02*
X5062377Y-11215059D01*
X5062377Y-11110297D02*
X5071901Y-11091249D01*
X5071901Y-11091249D02*
X5090949Y-11081726D01*
X5090949Y-11081726D02*
X5119520Y-11081726D01*
X5119520Y-11081726D02*
X5138568Y-11091249D01*
X5138568Y-11091249D02*
X5148091Y-11110297D01*
X5148091Y-11110297D02*
X5148091Y-11215059D01*
X5243330Y-11215059D02*
X5243330Y-11081726D01*
X5243330Y-11100773D02*
X5252853Y-11091249D01*
X5252853Y-11091249D02*
X5271901Y-11081726D01*
X5271901Y-11081726D02*
X5300472Y-11081726D01*
X5300472Y-11081726D02*
X5319520Y-11091249D01*
X5319520Y-11091249D02*
X5329044Y-11110297D01*
X5329044Y-11110297D02*
X5329044Y-11215059D01*
X5329044Y-11110297D02*
X5338568Y-11091249D01*
X5338568Y-11091249D02*
X5357615Y-11081726D01*
X5357615Y-11081726D02*
X5386187Y-11081726D01*
X5386187Y-11081726D02*
X5405234Y-11091249D01*
X5405234Y-11091249D02*
X5414758Y-11110297D01*
X5414758Y-11110297D02*
X5414758Y-11215059D01*
X5772853Y-11005535D02*
X5601425Y-11262678D01*
X5997615Y-11015059D02*
X6016663Y-11015059D01*
X6016663Y-11015059D02*
X6035710Y-11024583D01*
X6035710Y-11024583D02*
X6045234Y-11034107D01*
X6045234Y-11034107D02*
X6054758Y-11053154D01*
X6054758Y-11053154D02*
X6064282Y-11091249D01*
X6064282Y-11091249D02*
X6064282Y-11138869D01*
X6064282Y-11138869D02*
X6054758Y-11176964D01*
X6054758Y-11176964D02*
X6045234Y-11196011D01*
X6045234Y-11196011D02*
X6035710Y-11205535D01*
X6035710Y-11205535D02*
X6016663Y-11215059D01*
X6016663Y-11215059D02*
X5997615Y-11215059D01*
X5997615Y-11215059D02*
X5978568Y-11205535D01*
X5978568Y-11205535D02*
X5969044Y-11196011D01*
X5969044Y-11196011D02*
X5959520Y-11176964D01*
X5959520Y-11176964D02*
X5949996Y-11138869D01*
X5949996Y-11138869D02*
X5949996Y-11091249D01*
X5949996Y-11091249D02*
X5959520Y-11053154D01*
X5959520Y-11053154D02*
X5969044Y-11034107D01*
X5969044Y-11034107D02*
X5978568Y-11024583D01*
X5978568Y-11024583D02*
X5997615Y-11015059D01*
X6149996Y-11196011D02*
X6159520Y-11205535D01*
X6159520Y-11205535D02*
X6149996Y-11215059D01*
X6149996Y-11215059D02*
X6140472Y-11205535D01*
X6140472Y-11205535D02*
X6149996Y-11196011D01*
X6149996Y-11196011D02*
X6149996Y-11215059D01*
X6283329Y-11015059D02*
X6302377Y-11015059D01*
X6302377Y-11015059D02*
X6321425Y-11024583D01*
X6321425Y-11024583D02*
X6330949Y-11034107D01*
X6330949Y-11034107D02*
X6340472Y-11053154D01*
X6340472Y-11053154D02*
X6349996Y-11091249D01*
X6349996Y-11091249D02*
X6349996Y-11138869D01*
X6349996Y-11138869D02*
X6340472Y-11176964D01*
X6340472Y-11176964D02*
X6330949Y-11196011D01*
X6330949Y-11196011D02*
X6321425Y-11205535D01*
X6321425Y-11205535D02*
X6302377Y-11215059D01*
X6302377Y-11215059D02*
X6283329Y-11215059D01*
X6283329Y-11215059D02*
X6264282Y-11205535D01*
X6264282Y-11205535D02*
X6254758Y-11196011D01*
X6254758Y-11196011D02*
X6245234Y-11176964D01*
X6245234Y-11176964D02*
X6235710Y-11138869D01*
X6235710Y-11138869D02*
X6235710Y-11091249D01*
X6235710Y-11091249D02*
X6245234Y-11053154D01*
X6245234Y-11053154D02*
X6254758Y-11034107D01*
X6254758Y-11034107D02*
X6264282Y-11024583D01*
X6264282Y-11024583D02*
X6283329Y-11015059D01*
X6521425Y-11081726D02*
X6521425Y-11215059D01*
X6473806Y-11005535D02*
X6426187Y-11148392D01*
X6426187Y-11148392D02*
X6549996Y-11148392D01*
X6607139Y-11015059D02*
X6740472Y-11015059D01*
X6740472Y-11015059D02*
X6654758Y-11215059D01*
X6807139Y-11034107D02*
X6816663Y-11024583D01*
X6816663Y-11024583D02*
X6835710Y-11015059D01*
X6835710Y-11015059D02*
X6883330Y-11015059D01*
X6883330Y-11015059D02*
X6902377Y-11024583D01*
X6902377Y-11024583D02*
X6911901Y-11034107D01*
X6911901Y-11034107D02*
X6921425Y-11053154D01*
X6921425Y-11053154D02*
X6921425Y-11072202D01*
X6921425Y-11072202D02*
X6911901Y-11100773D01*
X6911901Y-11100773D02*
X6797615Y-11215059D01*
X6797615Y-11215059D02*
X6921425Y-11215059D01*
X6997615Y-11015059D02*
X6997615Y-11053154D01*
X7073806Y-11015059D02*
X7073806Y-11053154D01*
X7336663Y-11291249D02*
X7327139Y-11281726D01*
X7327139Y-11281726D02*
X7308091Y-11253154D01*
X7308091Y-11253154D02*
X7298568Y-11234107D01*
X7298568Y-11234107D02*
X7289044Y-11205535D01*
X7289044Y-11205535D02*
X7279520Y-11157916D01*
X7279520Y-11157916D02*
X7279520Y-11119821D01*
X7279520Y-11119821D02*
X7289044Y-11072202D01*
X7289044Y-11072202D02*
X7298568Y-11043630D01*
X7298568Y-11043630D02*
X7308091Y-11024583D01*
X7308091Y-11024583D02*
X7327139Y-10996011D01*
X7327139Y-10996011D02*
X7336663Y-10986488D01*
X7498568Y-11081726D02*
X7498568Y-11215059D01*
X7450949Y-11005535D02*
X7403330Y-11148392D01*
X7403330Y-11148392D02*
X7527139Y-11148392D01*
X7723330Y-11215059D02*
X7723330Y-11015059D01*
X7809044Y-11215059D02*
X7809044Y-11110297D01*
X7809044Y-11110297D02*
X7799520Y-11091249D01*
X7799520Y-11091249D02*
X7780472Y-11081726D01*
X7780472Y-11081726D02*
X7751901Y-11081726D01*
X7751901Y-11081726D02*
X7732853Y-11091249D01*
X7732853Y-11091249D02*
X7723330Y-11100773D01*
X7932853Y-11215059D02*
X7913806Y-11205535D01*
X7913806Y-11205535D02*
X7904282Y-11196011D01*
X7904282Y-11196011D02*
X7894758Y-11176964D01*
X7894758Y-11176964D02*
X7894758Y-11119821D01*
X7894758Y-11119821D02*
X7904282Y-11100773D01*
X7904282Y-11100773D02*
X7913806Y-11091249D01*
X7913806Y-11091249D02*
X7932853Y-11081726D01*
X7932853Y-11081726D02*
X7961425Y-11081726D01*
X7961425Y-11081726D02*
X7980472Y-11091249D01*
X7980472Y-11091249D02*
X7989996Y-11100773D01*
X7989996Y-11100773D02*
X7999520Y-11119821D01*
X7999520Y-11119821D02*
X7999520Y-11176964D01*
X7999520Y-11176964D02*
X7989996Y-11196011D01*
X7989996Y-11196011D02*
X7980472Y-11205535D01*
X7980472Y-11205535D02*
X7961425Y-11215059D01*
X7961425Y-11215059D02*
X7932853Y-11215059D01*
X8113806Y-11215059D02*
X8094758Y-11205535D01*
X8094758Y-11205535D02*
X8085234Y-11186487D01*
X8085234Y-11186487D02*
X8085234Y-11015059D01*
X8266187Y-11205535D02*
X8247139Y-11215059D01*
X8247139Y-11215059D02*
X8209044Y-11215059D01*
X8209044Y-11215059D02*
X8189996Y-11205535D01*
X8189996Y-11205535D02*
X8180472Y-11186487D01*
X8180472Y-11186487D02*
X8180472Y-11110297D01*
X8180472Y-11110297D02*
X8189996Y-11091249D01*
X8189996Y-11091249D02*
X8209044Y-11081726D01*
X8209044Y-11081726D02*
X8247139Y-11081726D01*
X8247139Y-11081726D02*
X8266187Y-11091249D01*
X8266187Y-11091249D02*
X8275711Y-11110297D01*
X8275711Y-11110297D02*
X8275711Y-11129345D01*
X8275711Y-11129345D02*
X8180472Y-11148392D01*
X8351901Y-11205535D02*
X8370949Y-11215059D01*
X8370949Y-11215059D02*
X8409044Y-11215059D01*
X8409044Y-11215059D02*
X8428092Y-11205535D01*
X8428092Y-11205535D02*
X8437615Y-11186487D01*
X8437615Y-11186487D02*
X8437615Y-11176964D01*
X8437615Y-11176964D02*
X8428092Y-11157916D01*
X8428092Y-11157916D02*
X8409044Y-11148392D01*
X8409044Y-11148392D02*
X8380472Y-11148392D01*
X8380472Y-11148392D02*
X8361425Y-11138869D01*
X8361425Y-11138869D02*
X8351901Y-11119821D01*
X8351901Y-11119821D02*
X8351901Y-11110297D01*
X8351901Y-11110297D02*
X8361425Y-11091249D01*
X8361425Y-11091249D02*
X8380472Y-11081726D01*
X8380472Y-11081726D02*
X8409044Y-11081726D01*
X8409044Y-11081726D02*
X8428092Y-11091249D01*
X8504282Y-11291249D02*
X8513806Y-11281726D01*
X8513806Y-11281726D02*
X8532854Y-11253154D01*
X8532854Y-11253154D02*
X8542377Y-11234107D01*
X8542377Y-11234107D02*
X8551901Y-11205535D01*
X8551901Y-11205535D02*
X8561425Y-11157916D01*
X8561425Y-11157916D02*
X8561425Y-11119821D01*
X8561425Y-11119821D02*
X8551901Y-11072202D01*
X8551901Y-11072202D02*
X8542377Y-11043630D01*
X8542377Y-11043630D02*
X8532854Y-11024583D01*
X8532854Y-11024583D02*
X8513806Y-10996011D01*
X8513806Y-10996011D02*
X8504282Y-10986488D01*
D10*
X3871901Y-11405583D02*
G75*
G03*
X3871901Y-11405583I-75000J0D01*
G01*
D11*
X4224282Y-11479059D02*
X4109996Y-11479059D01*
X4167139Y-11479059D02*
X4167139Y-11279059D01*
X4167139Y-11279059D02*
X4148091Y-11307630D01*
X4148091Y-11307630D02*
X4129044Y-11326678D01*
X4129044Y-11326678D02*
X4109996Y-11336202D01*
X4309996Y-11460011D02*
X4319520Y-11469535D01*
X4319520Y-11469535D02*
X4309996Y-11479059D01*
X4309996Y-11479059D02*
X4300472Y-11469535D01*
X4300472Y-11469535D02*
X4309996Y-11460011D01*
X4309996Y-11460011D02*
X4309996Y-11479059D01*
X4500472Y-11279059D02*
X4405234Y-11279059D01*
X4405234Y-11279059D02*
X4395710Y-11374297D01*
X4395710Y-11374297D02*
X4405234Y-11364773D01*
X4405234Y-11364773D02*
X4424282Y-11355249D01*
X4424282Y-11355249D02*
X4471901Y-11355249D01*
X4471901Y-11355249D02*
X4490949Y-11364773D01*
X4490949Y-11364773D02*
X4500472Y-11374297D01*
X4500472Y-11374297D02*
X4509996Y-11393345D01*
X4509996Y-11393345D02*
X4509996Y-11440964D01*
X4509996Y-11440964D02*
X4500472Y-11460011D01*
X4500472Y-11460011D02*
X4490949Y-11469535D01*
X4490949Y-11469535D02*
X4471901Y-11479059D01*
X4471901Y-11479059D02*
X4424282Y-11479059D01*
X4424282Y-11479059D02*
X4405234Y-11469535D01*
X4405234Y-11469535D02*
X4395710Y-11460011D01*
X4633806Y-11279059D02*
X4652853Y-11279059D01*
X4652853Y-11279059D02*
X4671901Y-11288583D01*
X4671901Y-11288583D02*
X4681425Y-11298107D01*
X4681425Y-11298107D02*
X4690949Y-11317154D01*
X4690949Y-11317154D02*
X4700472Y-11355249D01*
X4700472Y-11355249D02*
X4700472Y-11402868D01*
X4700472Y-11402868D02*
X4690949Y-11440964D01*
X4690949Y-11440964D02*
X4681425Y-11460011D01*
X4681425Y-11460011D02*
X4671901Y-11469535D01*
X4671901Y-11469535D02*
X4652853Y-11479059D01*
X4652853Y-11479059D02*
X4633806Y-11479059D01*
X4633806Y-11479059D02*
X4614758Y-11469535D01*
X4614758Y-11469535D02*
X4605234Y-11460011D01*
X4605234Y-11460011D02*
X4595710Y-11440964D01*
X4595710Y-11440964D02*
X4586187Y-11402868D01*
X4586187Y-11402868D02*
X4586187Y-11355249D01*
X4586187Y-11355249D02*
X4595710Y-11317154D01*
X4595710Y-11317154D02*
X4605234Y-11298107D01*
X4605234Y-11298107D02*
X4614758Y-11288583D01*
X4614758Y-11288583D02*
X4633806Y-11279059D01*
X4824282Y-11279059D02*
X4843330Y-11279059D01*
X4843330Y-11279059D02*
X4862377Y-11288583D01*
X4862377Y-11288583D02*
X4871901Y-11298107D01*
X4871901Y-11298107D02*
X4881425Y-11317154D01*
X4881425Y-11317154D02*
X4890949Y-11355249D01*
X4890949Y-11355249D02*
X4890949Y-11402868D01*
X4890949Y-11402868D02*
X4881425Y-11440964D01*
X4881425Y-11440964D02*
X4871901Y-11460011D01*
X4871901Y-11460011D02*
X4862377Y-11469535D01*
X4862377Y-11469535D02*
X4843330Y-11479059D01*
X4843330Y-11479059D02*
X4824282Y-11479059D01*
X4824282Y-11479059D02*
X4805234Y-11469535D01*
X4805234Y-11469535D02*
X4795710Y-11460011D01*
X4795710Y-11460011D02*
X4786187Y-11440964D01*
X4786187Y-11440964D02*
X4776663Y-11402868D01*
X4776663Y-11402868D02*
X4776663Y-11355249D01*
X4776663Y-11355249D02*
X4786187Y-11317154D01*
X4786187Y-11317154D02*
X4795710Y-11298107D01*
X4795710Y-11298107D02*
X4805234Y-11288583D01*
X4805234Y-11288583D02*
X4824282Y-11279059D01*
X4976663Y-11479059D02*
X4976663Y-11345726D01*
X4976663Y-11364773D02*
X4986187Y-11355249D01*
X4986187Y-11355249D02*
X5005234Y-11345726D01*
X5005234Y-11345726D02*
X5033806Y-11345726D01*
X5033806Y-11345726D02*
X5052853Y-11355249D01*
X5052853Y-11355249D02*
X5062377Y-11374297D01*
X5062377Y-11374297D02*
X5062377Y-11479059D01*
X5062377Y-11374297D02*
X5071901Y-11355249D01*
X5071901Y-11355249D02*
X5090949Y-11345726D01*
X5090949Y-11345726D02*
X5119520Y-11345726D01*
X5119520Y-11345726D02*
X5138568Y-11355249D01*
X5138568Y-11355249D02*
X5148091Y-11374297D01*
X5148091Y-11374297D02*
X5148091Y-11479059D01*
X5243330Y-11479059D02*
X5243330Y-11345726D01*
X5243330Y-11364773D02*
X5252853Y-11355249D01*
X5252853Y-11355249D02*
X5271901Y-11345726D01*
X5271901Y-11345726D02*
X5300472Y-11345726D01*
X5300472Y-11345726D02*
X5319520Y-11355249D01*
X5319520Y-11355249D02*
X5329044Y-11374297D01*
X5329044Y-11374297D02*
X5329044Y-11479059D01*
X5329044Y-11374297D02*
X5338568Y-11355249D01*
X5338568Y-11355249D02*
X5357615Y-11345726D01*
X5357615Y-11345726D02*
X5386187Y-11345726D01*
X5386187Y-11345726D02*
X5405234Y-11355249D01*
X5405234Y-11355249D02*
X5414758Y-11374297D01*
X5414758Y-11374297D02*
X5414758Y-11479059D01*
X5772853Y-11269535D02*
X5601425Y-11526678D01*
X5997615Y-11279059D02*
X6016663Y-11279059D01*
X6016663Y-11279059D02*
X6035710Y-11288583D01*
X6035710Y-11288583D02*
X6045234Y-11298107D01*
X6045234Y-11298107D02*
X6054758Y-11317154D01*
X6054758Y-11317154D02*
X6064282Y-11355249D01*
X6064282Y-11355249D02*
X6064282Y-11402868D01*
X6064282Y-11402868D02*
X6054758Y-11440964D01*
X6054758Y-11440964D02*
X6045234Y-11460011D01*
X6045234Y-11460011D02*
X6035710Y-11469535D01*
X6035710Y-11469535D02*
X6016663Y-11479059D01*
X6016663Y-11479059D02*
X5997615Y-11479059D01*
X5997615Y-11479059D02*
X5978568Y-11469535D01*
X5978568Y-11469535D02*
X5969044Y-11460011D01*
X5969044Y-11460011D02*
X5959520Y-11440964D01*
X5959520Y-11440964D02*
X5949996Y-11402868D01*
X5949996Y-11402868D02*
X5949996Y-11355249D01*
X5949996Y-11355249D02*
X5959520Y-11317154D01*
X5959520Y-11317154D02*
X5969044Y-11298107D01*
X5969044Y-11298107D02*
X5978568Y-11288583D01*
X5978568Y-11288583D02*
X5997615Y-11279059D01*
X6149996Y-11460011D02*
X6159520Y-11469535D01*
X6159520Y-11469535D02*
X6149996Y-11479059D01*
X6149996Y-11479059D02*
X6140472Y-11469535D01*
X6140472Y-11469535D02*
X6149996Y-11460011D01*
X6149996Y-11460011D02*
X6149996Y-11479059D01*
X6283329Y-11279059D02*
X6302377Y-11279059D01*
X6302377Y-11279059D02*
X6321425Y-11288583D01*
X6321425Y-11288583D02*
X6330949Y-11298107D01*
X6330949Y-11298107D02*
X6340472Y-11317154D01*
X6340472Y-11317154D02*
X6349996Y-11355249D01*
X6349996Y-11355249D02*
X6349996Y-11402868D01*
X6349996Y-11402868D02*
X6340472Y-11440964D01*
X6340472Y-11440964D02*
X6330949Y-11460011D01*
X6330949Y-11460011D02*
X6321425Y-11469535D01*
X6321425Y-11469535D02*
X6302377Y-11479059D01*
X6302377Y-11479059D02*
X6283329Y-11479059D01*
X6283329Y-11479059D02*
X6264282Y-11469535D01*
X6264282Y-11469535D02*
X6254758Y-11460011D01*
X6254758Y-11460011D02*
X6245234Y-11440964D01*
X6245234Y-11440964D02*
X6235710Y-11402868D01*
X6235710Y-11402868D02*
X6235710Y-11355249D01*
X6235710Y-11355249D02*
X6245234Y-11317154D01*
X6245234Y-11317154D02*
X6254758Y-11298107D01*
X6254758Y-11298107D02*
X6264282Y-11288583D01*
X6264282Y-11288583D02*
X6283329Y-11279059D01*
X6530949Y-11279059D02*
X6435710Y-11279059D01*
X6435710Y-11279059D02*
X6426187Y-11374297D01*
X6426187Y-11374297D02*
X6435710Y-11364773D01*
X6435710Y-11364773D02*
X6454758Y-11355249D01*
X6454758Y-11355249D02*
X6502377Y-11355249D01*
X6502377Y-11355249D02*
X6521425Y-11364773D01*
X6521425Y-11364773D02*
X6530949Y-11374297D01*
X6530949Y-11374297D02*
X6540472Y-11393345D01*
X6540472Y-11393345D02*
X6540472Y-11440964D01*
X6540472Y-11440964D02*
X6530949Y-11460011D01*
X6530949Y-11460011D02*
X6521425Y-11469535D01*
X6521425Y-11469535D02*
X6502377Y-11479059D01*
X6502377Y-11479059D02*
X6454758Y-11479059D01*
X6454758Y-11479059D02*
X6435710Y-11469535D01*
X6435710Y-11469535D02*
X6426187Y-11460011D01*
X6635710Y-11479059D02*
X6673806Y-11479059D01*
X6673806Y-11479059D02*
X6692853Y-11469535D01*
X6692853Y-11469535D02*
X6702377Y-11460011D01*
X6702377Y-11460011D02*
X6721425Y-11431440D01*
X6721425Y-11431440D02*
X6730949Y-11393345D01*
X6730949Y-11393345D02*
X6730949Y-11317154D01*
X6730949Y-11317154D02*
X6721425Y-11298107D01*
X6721425Y-11298107D02*
X6711901Y-11288583D01*
X6711901Y-11288583D02*
X6692853Y-11279059D01*
X6692853Y-11279059D02*
X6654758Y-11279059D01*
X6654758Y-11279059D02*
X6635710Y-11288583D01*
X6635710Y-11288583D02*
X6626187Y-11298107D01*
X6626187Y-11298107D02*
X6616663Y-11317154D01*
X6616663Y-11317154D02*
X6616663Y-11364773D01*
X6616663Y-11364773D02*
X6626187Y-11383821D01*
X6626187Y-11383821D02*
X6635710Y-11393345D01*
X6635710Y-11393345D02*
X6654758Y-11402868D01*
X6654758Y-11402868D02*
X6692853Y-11402868D01*
X6692853Y-11402868D02*
X6711901Y-11393345D01*
X6711901Y-11393345D02*
X6721425Y-11383821D01*
X6721425Y-11383821D02*
X6730949Y-11364773D01*
X6921425Y-11479059D02*
X6807139Y-11479059D01*
X6864282Y-11479059D02*
X6864282Y-11279059D01*
X6864282Y-11279059D02*
X6845234Y-11307630D01*
X6845234Y-11307630D02*
X6826187Y-11326678D01*
X6826187Y-11326678D02*
X6807139Y-11336202D01*
X6997615Y-11279059D02*
X6997615Y-11317154D01*
X7073806Y-11279059D02*
X7073806Y-11317154D01*
X7336663Y-11555249D02*
X7327139Y-11545726D01*
X7327139Y-11545726D02*
X7308091Y-11517154D01*
X7308091Y-11517154D02*
X7298568Y-11498107D01*
X7298568Y-11498107D02*
X7289044Y-11469535D01*
X7289044Y-11469535D02*
X7279520Y-11421916D01*
X7279520Y-11421916D02*
X7279520Y-11383821D01*
X7279520Y-11383821D02*
X7289044Y-11336202D01*
X7289044Y-11336202D02*
X7298568Y-11307630D01*
X7298568Y-11307630D02*
X7308091Y-11288583D01*
X7308091Y-11288583D02*
X7327139Y-11260011D01*
X7327139Y-11260011D02*
X7336663Y-11250487D01*
X7403330Y-11298107D02*
X7412853Y-11288583D01*
X7412853Y-11288583D02*
X7431901Y-11279059D01*
X7431901Y-11279059D02*
X7479520Y-11279059D01*
X7479520Y-11279059D02*
X7498568Y-11288583D01*
X7498568Y-11288583D02*
X7508091Y-11298107D01*
X7508091Y-11298107D02*
X7517615Y-11317154D01*
X7517615Y-11317154D02*
X7517615Y-11336202D01*
X7517615Y-11336202D02*
X7508091Y-11364773D01*
X7508091Y-11364773D02*
X7393806Y-11479059D01*
X7393806Y-11479059D02*
X7517615Y-11479059D01*
X7723330Y-11479059D02*
X7723330Y-11279059D01*
X7809044Y-11479059D02*
X7809044Y-11374297D01*
X7809044Y-11374297D02*
X7799520Y-11355249D01*
X7799520Y-11355249D02*
X7780472Y-11345726D01*
X7780472Y-11345726D02*
X7751901Y-11345726D01*
X7751901Y-11345726D02*
X7732853Y-11355249D01*
X7732853Y-11355249D02*
X7723330Y-11364773D01*
X7932853Y-11479059D02*
X7913806Y-11469535D01*
X7913806Y-11469535D02*
X7904282Y-11460011D01*
X7904282Y-11460011D02*
X7894758Y-11440964D01*
X7894758Y-11440964D02*
X7894758Y-11383821D01*
X7894758Y-11383821D02*
X7904282Y-11364773D01*
X7904282Y-11364773D02*
X7913806Y-11355249D01*
X7913806Y-11355249D02*
X7932853Y-11345726D01*
X7932853Y-11345726D02*
X7961425Y-11345726D01*
X7961425Y-11345726D02*
X7980472Y-11355249D01*
X7980472Y-11355249D02*
X7989996Y-11364773D01*
X7989996Y-11364773D02*
X7999520Y-11383821D01*
X7999520Y-11383821D02*
X7999520Y-11440964D01*
X7999520Y-11440964D02*
X7989996Y-11460011D01*
X7989996Y-11460011D02*
X7980472Y-11469535D01*
X7980472Y-11469535D02*
X7961425Y-11479059D01*
X7961425Y-11479059D02*
X7932853Y-11479059D01*
X8113806Y-11479059D02*
X8094758Y-11469535D01*
X8094758Y-11469535D02*
X8085234Y-11450487D01*
X8085234Y-11450487D02*
X8085234Y-11279059D01*
X8266187Y-11469535D02*
X8247139Y-11479059D01*
X8247139Y-11479059D02*
X8209044Y-11479059D01*
X8209044Y-11479059D02*
X8189996Y-11469535D01*
X8189996Y-11469535D02*
X8180472Y-11450487D01*
X8180472Y-11450487D02*
X8180472Y-11374297D01*
X8180472Y-11374297D02*
X8189996Y-11355249D01*
X8189996Y-11355249D02*
X8209044Y-11345726D01*
X8209044Y-11345726D02*
X8247139Y-11345726D01*
X8247139Y-11345726D02*
X8266187Y-11355249D01*
X8266187Y-11355249D02*
X8275711Y-11374297D01*
X8275711Y-11374297D02*
X8275711Y-11393345D01*
X8275711Y-11393345D02*
X8180472Y-11412392D01*
X8351901Y-11469535D02*
X8370949Y-11479059D01*
X8370949Y-11479059D02*
X8409044Y-11479059D01*
X8409044Y-11479059D02*
X8428092Y-11469535D01*
X8428092Y-11469535D02*
X8437615Y-11450487D01*
X8437615Y-11450487D02*
X8437615Y-11440964D01*
X8437615Y-11440964D02*
X8428092Y-11421916D01*
X8428092Y-11421916D02*
X8409044Y-11412392D01*
X8409044Y-11412392D02*
X8380472Y-11412392D01*
X8380472Y-11412392D02*
X8361425Y-11402868D01*
X8361425Y-11402868D02*
X8351901Y-11383821D01*
X8351901Y-11383821D02*
X8351901Y-11374297D01*
X8351901Y-11374297D02*
X8361425Y-11355249D01*
X8361425Y-11355249D02*
X8380472Y-11345726D01*
X8380472Y-11345726D02*
X8409044Y-11345726D01*
X8409044Y-11345726D02*
X8428092Y-11355249D01*
X8504282Y-11555249D02*
X8513806Y-11545726D01*
X8513806Y-11545726D02*
X8532854Y-11517154D01*
X8532854Y-11517154D02*
X8542377Y-11498107D01*
X8542377Y-11498107D02*
X8551901Y-11469535D01*
X8551901Y-11469535D02*
X8561425Y-11421916D01*
X8561425Y-11421916D02*
X8561425Y-11383821D01*
X8561425Y-11383821D02*
X8551901Y-11336202D01*
X8551901Y-11336202D02*
X8542377Y-11307630D01*
X8542377Y-11307630D02*
X8532854Y-11288583D01*
X8532854Y-11288583D02*
X8513806Y-11260011D01*
X8513806Y-11260011D02*
X8504282Y-11250487D01*
D13*
X3791901Y-11595583D02*
X3791901Y-11755583D01*
X3711901Y-11675583D02*
X3871901Y-11675583D01*
D11*
X4224282Y-11749059D02*
X4109996Y-11749059D01*
X4167139Y-11749059D02*
X4167139Y-11549059D01*
X4167139Y-11549059D02*
X4148091Y-11577630D01*
X4148091Y-11577630D02*
X4129044Y-11596678D01*
X4129044Y-11596678D02*
X4109996Y-11606202D01*
X4309996Y-11730011D02*
X4319520Y-11739535D01*
X4319520Y-11739535D02*
X4309996Y-11749059D01*
X4309996Y-11749059D02*
X4300472Y-11739535D01*
X4300472Y-11739535D02*
X4309996Y-11730011D01*
X4309996Y-11730011D02*
X4309996Y-11749059D01*
X4490949Y-11549059D02*
X4452853Y-11549059D01*
X4452853Y-11549059D02*
X4433806Y-11558583D01*
X4433806Y-11558583D02*
X4424282Y-11568107D01*
X4424282Y-11568107D02*
X4405234Y-11596678D01*
X4405234Y-11596678D02*
X4395710Y-11634773D01*
X4395710Y-11634773D02*
X4395710Y-11710964D01*
X4395710Y-11710964D02*
X4405234Y-11730011D01*
X4405234Y-11730011D02*
X4414758Y-11739535D01*
X4414758Y-11739535D02*
X4433806Y-11749059D01*
X4433806Y-11749059D02*
X4471901Y-11749059D01*
X4471901Y-11749059D02*
X4490949Y-11739535D01*
X4490949Y-11739535D02*
X4500472Y-11730011D01*
X4500472Y-11730011D02*
X4509996Y-11710964D01*
X4509996Y-11710964D02*
X4509996Y-11663345D01*
X4509996Y-11663345D02*
X4500472Y-11644297D01*
X4500472Y-11644297D02*
X4490949Y-11634773D01*
X4490949Y-11634773D02*
X4471901Y-11625249D01*
X4471901Y-11625249D02*
X4433806Y-11625249D01*
X4433806Y-11625249D02*
X4414758Y-11634773D01*
X4414758Y-11634773D02*
X4405234Y-11644297D01*
X4405234Y-11644297D02*
X4395710Y-11663345D01*
X4633806Y-11549059D02*
X4652853Y-11549059D01*
X4652853Y-11549059D02*
X4671901Y-11558583D01*
X4671901Y-11558583D02*
X4681425Y-11568107D01*
X4681425Y-11568107D02*
X4690949Y-11587154D01*
X4690949Y-11587154D02*
X4700472Y-11625249D01*
X4700472Y-11625249D02*
X4700472Y-11672868D01*
X4700472Y-11672868D02*
X4690949Y-11710964D01*
X4690949Y-11710964D02*
X4681425Y-11730011D01*
X4681425Y-11730011D02*
X4671901Y-11739535D01*
X4671901Y-11739535D02*
X4652853Y-11749059D01*
X4652853Y-11749059D02*
X4633806Y-11749059D01*
X4633806Y-11749059D02*
X4614758Y-11739535D01*
X4614758Y-11739535D02*
X4605234Y-11730011D01*
X4605234Y-11730011D02*
X4595710Y-11710964D01*
X4595710Y-11710964D02*
X4586187Y-11672868D01*
X4586187Y-11672868D02*
X4586187Y-11625249D01*
X4586187Y-11625249D02*
X4595710Y-11587154D01*
X4595710Y-11587154D02*
X4605234Y-11568107D01*
X4605234Y-11568107D02*
X4614758Y-11558583D01*
X4614758Y-11558583D02*
X4633806Y-11549059D01*
X4824282Y-11549059D02*
X4843330Y-11549059D01*
X4843330Y-11549059D02*
X4862377Y-11558583D01*
X4862377Y-11558583D02*
X4871901Y-11568107D01*
X4871901Y-11568107D02*
X4881425Y-11587154D01*
X4881425Y-11587154D02*
X4890949Y-11625249D01*
X4890949Y-11625249D02*
X4890949Y-11672868D01*
X4890949Y-11672868D02*
X4881425Y-11710964D01*
X4881425Y-11710964D02*
X4871901Y-11730011D01*
X4871901Y-11730011D02*
X4862377Y-11739535D01*
X4862377Y-11739535D02*
X4843330Y-11749059D01*
X4843330Y-11749059D02*
X4824282Y-11749059D01*
X4824282Y-11749059D02*
X4805234Y-11739535D01*
X4805234Y-11739535D02*
X4795710Y-11730011D01*
X4795710Y-11730011D02*
X4786187Y-11710964D01*
X4786187Y-11710964D02*
X4776663Y-11672868D01*
X4776663Y-11672868D02*
X4776663Y-11625249D01*
X4776663Y-11625249D02*
X4786187Y-11587154D01*
X4786187Y-11587154D02*
X4795710Y-11568107D01*
X4795710Y-11568107D02*
X4805234Y-11558583D01*
X4805234Y-11558583D02*
X4824282Y-11549059D01*
X4976663Y-11749059D02*
X4976663Y-11615726D01*
X4976663Y-11634773D02*
X4986187Y-11625249D01*
X4986187Y-11625249D02*
X5005234Y-11615726D01*
X5005234Y-11615726D02*
X5033806Y-11615726D01*
X5033806Y-11615726D02*
X5052853Y-11625249D01*
X5052853Y-11625249D02*
X5062377Y-11644297D01*
X5062377Y-11644297D02*
X5062377Y-11749059D01*
X5062377Y-11644297D02*
X5071901Y-11625249D01*
X5071901Y-11625249D02*
X5090949Y-11615726D01*
X5090949Y-11615726D02*
X5119520Y-11615726D01*
X5119520Y-11615726D02*
X5138568Y-11625249D01*
X5138568Y-11625249D02*
X5148091Y-11644297D01*
X5148091Y-11644297D02*
X5148091Y-11749059D01*
X5243330Y-11749059D02*
X5243330Y-11615726D01*
X5243330Y-11634773D02*
X5252853Y-11625249D01*
X5252853Y-11625249D02*
X5271901Y-11615726D01*
X5271901Y-11615726D02*
X5300472Y-11615726D01*
X5300472Y-11615726D02*
X5319520Y-11625249D01*
X5319520Y-11625249D02*
X5329044Y-11644297D01*
X5329044Y-11644297D02*
X5329044Y-11749059D01*
X5329044Y-11644297D02*
X5338568Y-11625249D01*
X5338568Y-11625249D02*
X5357615Y-11615726D01*
X5357615Y-11615726D02*
X5386187Y-11615726D01*
X5386187Y-11615726D02*
X5405234Y-11625249D01*
X5405234Y-11625249D02*
X5414758Y-11644297D01*
X5414758Y-11644297D02*
X5414758Y-11749059D01*
X5772853Y-11539535D02*
X5601425Y-11796678D01*
X5997615Y-11549059D02*
X6016663Y-11549059D01*
X6016663Y-11549059D02*
X6035710Y-11558583D01*
X6035710Y-11558583D02*
X6045234Y-11568107D01*
X6045234Y-11568107D02*
X6054758Y-11587154D01*
X6054758Y-11587154D02*
X6064282Y-11625249D01*
X6064282Y-11625249D02*
X6064282Y-11672868D01*
X6064282Y-11672868D02*
X6054758Y-11710964D01*
X6054758Y-11710964D02*
X6045234Y-11730011D01*
X6045234Y-11730011D02*
X6035710Y-11739535D01*
X6035710Y-11739535D02*
X6016663Y-11749059D01*
X6016663Y-11749059D02*
X5997615Y-11749059D01*
X5997615Y-11749059D02*
X5978568Y-11739535D01*
X5978568Y-11739535D02*
X5969044Y-11730011D01*
X5969044Y-11730011D02*
X5959520Y-11710964D01*
X5959520Y-11710964D02*
X5949996Y-11672868D01*
X5949996Y-11672868D02*
X5949996Y-11625249D01*
X5949996Y-11625249D02*
X5959520Y-11587154D01*
X5959520Y-11587154D02*
X5969044Y-11568107D01*
X5969044Y-11568107D02*
X5978568Y-11558583D01*
X5978568Y-11558583D02*
X5997615Y-11549059D01*
X6149996Y-11730011D02*
X6159520Y-11739535D01*
X6159520Y-11739535D02*
X6149996Y-11749059D01*
X6149996Y-11749059D02*
X6140472Y-11739535D01*
X6140472Y-11739535D02*
X6149996Y-11730011D01*
X6149996Y-11730011D02*
X6149996Y-11749059D01*
X6283329Y-11549059D02*
X6302377Y-11549059D01*
X6302377Y-11549059D02*
X6321425Y-11558583D01*
X6321425Y-11558583D02*
X6330949Y-11568107D01*
X6330949Y-11568107D02*
X6340472Y-11587154D01*
X6340472Y-11587154D02*
X6349996Y-11625249D01*
X6349996Y-11625249D02*
X6349996Y-11672868D01*
X6349996Y-11672868D02*
X6340472Y-11710964D01*
X6340472Y-11710964D02*
X6330949Y-11730011D01*
X6330949Y-11730011D02*
X6321425Y-11739535D01*
X6321425Y-11739535D02*
X6302377Y-11749059D01*
X6302377Y-11749059D02*
X6283329Y-11749059D01*
X6283329Y-11749059D02*
X6264282Y-11739535D01*
X6264282Y-11739535D02*
X6254758Y-11730011D01*
X6254758Y-11730011D02*
X6245234Y-11710964D01*
X6245234Y-11710964D02*
X6235710Y-11672868D01*
X6235710Y-11672868D02*
X6235710Y-11625249D01*
X6235710Y-11625249D02*
X6245234Y-11587154D01*
X6245234Y-11587154D02*
X6254758Y-11568107D01*
X6254758Y-11568107D02*
X6264282Y-11558583D01*
X6264282Y-11558583D02*
X6283329Y-11549059D01*
X6521425Y-11549059D02*
X6483329Y-11549059D01*
X6483329Y-11549059D02*
X6464282Y-11558583D01*
X6464282Y-11558583D02*
X6454758Y-11568107D01*
X6454758Y-11568107D02*
X6435710Y-11596678D01*
X6435710Y-11596678D02*
X6426187Y-11634773D01*
X6426187Y-11634773D02*
X6426187Y-11710964D01*
X6426187Y-11710964D02*
X6435710Y-11730011D01*
X6435710Y-11730011D02*
X6445234Y-11739535D01*
X6445234Y-11739535D02*
X6464282Y-11749059D01*
X6464282Y-11749059D02*
X6502377Y-11749059D01*
X6502377Y-11749059D02*
X6521425Y-11739535D01*
X6521425Y-11739535D02*
X6530949Y-11730011D01*
X6530949Y-11730011D02*
X6540472Y-11710964D01*
X6540472Y-11710964D02*
X6540472Y-11663345D01*
X6540472Y-11663345D02*
X6530949Y-11644297D01*
X6530949Y-11644297D02*
X6521425Y-11634773D01*
X6521425Y-11634773D02*
X6502377Y-11625249D01*
X6502377Y-11625249D02*
X6464282Y-11625249D01*
X6464282Y-11625249D02*
X6445234Y-11634773D01*
X6445234Y-11634773D02*
X6435710Y-11644297D01*
X6435710Y-11644297D02*
X6426187Y-11663345D01*
X6607139Y-11549059D02*
X6730949Y-11549059D01*
X6730949Y-11549059D02*
X6664282Y-11625249D01*
X6664282Y-11625249D02*
X6692853Y-11625249D01*
X6692853Y-11625249D02*
X6711901Y-11634773D01*
X6711901Y-11634773D02*
X6721425Y-11644297D01*
X6721425Y-11644297D02*
X6730949Y-11663345D01*
X6730949Y-11663345D02*
X6730949Y-11710964D01*
X6730949Y-11710964D02*
X6721425Y-11730011D01*
X6721425Y-11730011D02*
X6711901Y-11739535D01*
X6711901Y-11739535D02*
X6692853Y-11749059D01*
X6692853Y-11749059D02*
X6635710Y-11749059D01*
X6635710Y-11749059D02*
X6616663Y-11739535D01*
X6616663Y-11739535D02*
X6607139Y-11730011D01*
X6854758Y-11549059D02*
X6873806Y-11549059D01*
X6873806Y-11549059D02*
X6892853Y-11558583D01*
X6892853Y-11558583D02*
X6902377Y-11568107D01*
X6902377Y-11568107D02*
X6911901Y-11587154D01*
X6911901Y-11587154D02*
X6921425Y-11625249D01*
X6921425Y-11625249D02*
X6921425Y-11672868D01*
X6921425Y-11672868D02*
X6911901Y-11710964D01*
X6911901Y-11710964D02*
X6902377Y-11730011D01*
X6902377Y-11730011D02*
X6892853Y-11739535D01*
X6892853Y-11739535D02*
X6873806Y-11749059D01*
X6873806Y-11749059D02*
X6854758Y-11749059D01*
X6854758Y-11749059D02*
X6835710Y-11739535D01*
X6835710Y-11739535D02*
X6826187Y-11730011D01*
X6826187Y-11730011D02*
X6816663Y-11710964D01*
X6816663Y-11710964D02*
X6807139Y-11672868D01*
X6807139Y-11672868D02*
X6807139Y-11625249D01*
X6807139Y-11625249D02*
X6816663Y-11587154D01*
X6816663Y-11587154D02*
X6826187Y-11568107D01*
X6826187Y-11568107D02*
X6835710Y-11558583D01*
X6835710Y-11558583D02*
X6854758Y-11549059D01*
X6997615Y-11549059D02*
X6997615Y-11587154D01*
X7073806Y-11549059D02*
X7073806Y-11587154D01*
X7336663Y-11825249D02*
X7327139Y-11815726D01*
X7327139Y-11815726D02*
X7308091Y-11787154D01*
X7308091Y-11787154D02*
X7298568Y-11768107D01*
X7298568Y-11768107D02*
X7289044Y-11739535D01*
X7289044Y-11739535D02*
X7279520Y-11691916D01*
X7279520Y-11691916D02*
X7279520Y-11653821D01*
X7279520Y-11653821D02*
X7289044Y-11606202D01*
X7289044Y-11606202D02*
X7298568Y-11577630D01*
X7298568Y-11577630D02*
X7308091Y-11558583D01*
X7308091Y-11558583D02*
X7327139Y-11530011D01*
X7327139Y-11530011D02*
X7336663Y-11520487D01*
X7517615Y-11749059D02*
X7403330Y-11749059D01*
X7460472Y-11749059D02*
X7460472Y-11549059D01*
X7460472Y-11549059D02*
X7441425Y-11577630D01*
X7441425Y-11577630D02*
X7422377Y-11596678D01*
X7422377Y-11596678D02*
X7403330Y-11606202D01*
X7723330Y-11749059D02*
X7723330Y-11549059D01*
X7809044Y-11749059D02*
X7809044Y-11644297D01*
X7809044Y-11644297D02*
X7799520Y-11625249D01*
X7799520Y-11625249D02*
X7780472Y-11615726D01*
X7780472Y-11615726D02*
X7751901Y-11615726D01*
X7751901Y-11615726D02*
X7732853Y-11625249D01*
X7732853Y-11625249D02*
X7723330Y-11634773D01*
X7932853Y-11749059D02*
X7913806Y-11739535D01*
X7913806Y-11739535D02*
X7904282Y-11730011D01*
X7904282Y-11730011D02*
X7894758Y-11710964D01*
X7894758Y-11710964D02*
X7894758Y-11653821D01*
X7894758Y-11653821D02*
X7904282Y-11634773D01*
X7904282Y-11634773D02*
X7913806Y-11625249D01*
X7913806Y-11625249D02*
X7932853Y-11615726D01*
X7932853Y-11615726D02*
X7961425Y-11615726D01*
X7961425Y-11615726D02*
X7980472Y-11625249D01*
X7980472Y-11625249D02*
X7989996Y-11634773D01*
X7989996Y-11634773D02*
X7999520Y-11653821D01*
X7999520Y-11653821D02*
X7999520Y-11710964D01*
X7999520Y-11710964D02*
X7989996Y-11730011D01*
X7989996Y-11730011D02*
X7980472Y-11739535D01*
X7980472Y-11739535D02*
X7961425Y-11749059D01*
X7961425Y-11749059D02*
X7932853Y-11749059D01*
X8113806Y-11749059D02*
X8094758Y-11739535D01*
X8094758Y-11739535D02*
X8085234Y-11720487D01*
X8085234Y-11720487D02*
X8085234Y-11549059D01*
X8266187Y-11739535D02*
X8247139Y-11749059D01*
X8247139Y-11749059D02*
X8209044Y-11749059D01*
X8209044Y-11749059D02*
X8189996Y-11739535D01*
X8189996Y-11739535D02*
X8180472Y-11720487D01*
X8180472Y-11720487D02*
X8180472Y-11644297D01*
X8180472Y-11644297D02*
X8189996Y-11625249D01*
X8189996Y-11625249D02*
X8209044Y-11615726D01*
X8209044Y-11615726D02*
X8247139Y-11615726D01*
X8247139Y-11615726D02*
X8266187Y-11625249D01*
X8266187Y-11625249D02*
X8275711Y-11644297D01*
X8275711Y-11644297D02*
X8275711Y-11663345D01*
X8275711Y-11663345D02*
X8180472Y-11682392D01*
X8342377Y-11825249D02*
X8351901Y-11815726D01*
X8351901Y-11815726D02*
X8370949Y-11787154D01*
X8370949Y-11787154D02*
X8380472Y-11768107D01*
X8380472Y-11768107D02*
X8389996Y-11739535D01*
X8389996Y-11739535D02*
X8399520Y-11691916D01*
X8399520Y-11691916D02*
X8399520Y-11653821D01*
X8399520Y-11653821D02*
X8389996Y-11606202D01*
X8389996Y-11606202D02*
X8380472Y-11577630D01*
X8380472Y-11577630D02*
X8370949Y-11558583D01*
X8370949Y-11558583D02*
X8351901Y-11530011D01*
X8351901Y-11530011D02*
X8342377Y-11520487D01*
M02*
